<svg xmlns="http://www.w3.org/2000/svg" width="900" height="450"><path fill="#002d72" d="M0 450h900V0H0Z"/><path fill="#ff3515" d="M596.3 185c1-4.7 3.2 2.3 3.2 2.3l5.6 6.3s6 50.7 6.7 54.5-2.4.7-2.1 4.2c.4 3.4 3.5 5.5.4 8-3.2 2.3-5.6 2.7-6 8.5-.3 6 1.1 54 2.1 62s1 9 3.9 11.8a21 21 0 0 1 3.8 5.2c-6-.5-25-.4-25-.4l-3.5-2.1s6.5-77.3 7.5-84.2c0 0 2.4-71.5 3.4-76.2z" style="stroke:#000;stroke-width:.3;stroke-dasharray:none;stroke-opacity:1"/><path fill="#fff" d="M449.7 388.3c26.8 0 30.5-2 56.3-7-3.1-8.5-4.1-15.5-7.3-25.2s12-9.2 23-9.6 76.6.9 92.3 1.3c14.4.5 22.8.9 28 3.1.9.4 2.1 2 1.6 3.4-3.1 7.3-8.8 17.5-11.6 22.6-2.7 5-3.7 7.4-12 5.5l-1.8 5.6c-11.5-.5-14.8-3-12-7 4.2-5.8 5.5-9.6 5.5-9.6h-54c2.9 6 15.5 25.9 3.6 29.3 0 0-36 23.8-110.9 23.8-74.7 0-109.7-22.7-109.7-22.7-10-7-2.2-22.2 1-30.4h-54s1 4.1 5.6 9.7-.5 6.4-12 6.9l-1.9-5.6c-8.3 1.9-9.2-.4-12-5.5-2.7-5-8.8-15.8-11.5-22.6.6-1 1.8-2.7 3-3.1 10.2-3 12.5-3 26.6-3.4a3391 3391 0 0 1 92.3-1.3c10.1-.6 24.4 1.2 23 9.6-2.5 10-3.7 15.6-6.9 24.5 25.9 5 29 7.7 55.9 7.7"/><path fill="#0077c8" d="M491.5 315.4h-.3zm-1 .1h-.6zm.6 0h-.4zm1-.3-.2.1zm28-13.2-39.4 1.5s8.8 2.6 6.4 3.3c-1.4.4-2.3-.3-4.6.4-2 .6 3.9 1 6 1.4 1.3.3-1.7.7-3.7 1.4s5.3 0 6.5.5-4 .3-5.5 1.3c-2.7 1.6 10.8-.2 9.2.5-2.9 1.3-6.9 1-9.2 2.3-2.6 1.3 8.7-.5 8.7-.5 8.4 2.6 16.8 5.2 25.6 6.2m-127.6.3c5.1 1.4 6 0 6 0s5.1-3.7 8.3-3.2c1.4.2 2.2 1.1 2.8 1.2 1 .2 1.5-2 1-2.1-2.6-.6-9.3-.6-7-1 2.8-.4 11-1 8.3-1.3-3.2-.4-10.2.1-7.8-1 1.7-.8 3.7-.7 6-1.3 1.3-.4-8.6-.4-6.5-1l6-1.4c1.4-.4-7.7-1-6-1.3 2.8-.5 9.1-.7 7.8-1-2.8-.4-12.2-.2-9.2-.9s9.7-1.3 13.6-2.1c2.5-.5 2.6-1.1-6.7-1.1-9.2 0-28.1-1.4-28.1-1.4h-.7v16.8l.2-.2c7.9 0 7 1 12 2.3m57.6-144.9h-40.6a48 48 0 0 1-25.8 23.2 38.3 38.3 0 0 1-3.4 51.5v6.8l-.2.6s1.8-1.8 5.5-3.7c3.7-1.8 5-2.7 7.8-.9s5.6 2.8 5.6 2.8 3.7-2.3 6.9-4.6 2.3-3.7 6.5-2.8c4.1 1 14.2-1.8 18-3.7 3.6-1.8 5.5.5 8.7-3.7 3.2-4.1 3.2-3.6 7.8-5.5 4.7-1.8 3.7-5 9.7-3.2s9.3.9 18 7.8c8.8 7 14.3 9.2 18 13 3.7 3.6 7.4 6 7.4 6s3.7-1.4 7.4-3.3 5-3.2 7.8-1.4 5.1 2.3 5.1 2.3l-.3-.3v-6.2a38.3 38.3 0 0 1-3.3-51.5 48 48 0 0 1-25.8-23.2zm-32-19.4h-.4c3.7.7 12.7 0 12.7 0-4.1-.8-4.3-4.5-6.6-6.6a10 10 0 0 0-7.4-3.1q-5.2 0-4.9 5.1c.4 3.3 3 4.6 6.3 4.6m30.6-6.6a10 10 0 0 0-7.4-3.1c-1.9 0-3.6 1.4-5.9 2.1l1 1c2.3 2 2.5 5.8 6.6 6.6h-.4c3.7.7 12.7 0 12.7 0-4.2-.8-4.3-4.5-6.6-6.6m24.6 0a10 10 0 0 0-7.4-3.1c-2 0-3.6 1.4-5.9 2.1l1 1c2.3 2 2.5 5.8 6.6 6.6h-.4c3.7.7 12.7 0 12.7 0-4.2-.8-4.4-4.5-6.6-6.6"/><path fill="#0077c8" d="M477.1 146.4a29.3 29.3 0 1 0-49.6.1l-.2.3 1.4-.2c2.6 0 4.4.7 6.3 2h.7c2-.9 3.6-2 5.3-2q3.5 0 6 2l.4.1c2.3-.7 4-2.1 5.9-2.1q3.6 0 6.3 2.1h.1c2.3-.7 4-2.1 5.9-2.1q3.4 0 6 2l.4.1c2-.6 3.5-1.8 5.2-2z"/><path d="M293.1 192.6c-4 27.4-11 52-12 82.2q-.2.2 3.8 2.3l-2.1 23.4c-.2 1.8 1.2 1.7 3.4 2.8 0 0-3.4 17.7 3.2 25.3s10.7 16.6 14.2 16.2c3.4-.3 5.2-1 5.2-1 1.4-3 6.5-7 6.8-6.7 2.5-2 1-141.4-.1-145.4l-5.8-18.5z" style="display:inline;fill:#ff3515;fill-opacity:1;stroke:#000;stroke-width:.3;stroke-dasharray:none;stroke-opacity:1"/><path fill="#523178" d="M305.6 184.2c-.4 4-.3 4.4-.3 10.6 0 6.4.5 7.2.7 10.9.2 3.6-.3 3.6-.2 5 .4 2.3.7 4.1 1 0 1-2.5 2-9.5 3.2-10.6s1.2-.1-.7-1.5c-2-1.4-2.3-3.3-2-5.2.4-2 0-7.3.4-10.6.2-1.7-.4-3.7-.6-4.6-.6 2.9-1.5 6.2-1.5 6"/><path fill="#0077c8" d="M303 152c2.2-3.5 3.7-4.7 5.2-4.4 0 0 2.2-.9 5.6-1.4 3.5-.6 8.4-3.5 8.4-3.5v.1l17.6 1.3 13 6c3.1.6 6.6 9 10.1 12.7s3.8 6.1 3.8 8.4l-.7-.6a7 7 0 0 0-2-1.8c-5.8-.5-5.4 5.6-5.8 10.2.8 1.5 2.8 3 5 4.4l-.3.1s-2.6 11.1-4.1 15.2c-1.6 4.2-46.6-6.6-46.6-6.6s-2.3-3-1-8.6c.7-2.4 1-2.3-.4-3.5-1.4-1.1-1.1-6.9-1.1-6.9s-1.2 1.6-1.6 4l-4.2 15.6c-2.1 6.8-6.2 12.3-8.1 5.5l-3.1-25.7s6.8-15.3 10.3-20.6z" style="display:inline;stroke:#000;stroke-width:.3;stroke-dasharray:none;stroke-opacity:1"/><path fill="#ffd100" d="M452.5 234a11.7 11.7 0 1 0 0-23.4 11.7 11.7 0 0 0 0 23.5"/><path fill="#fff" d="m497.5 145.8-1.3-72.5-.7-1-.7 1-1.4 72.5" style="stroke:#000;stroke-width:.3;stroke-dasharray:none;stroke-opacity:1"/><path fill="#ffd100" d="M493.7 155.8v4.4c0 2.4 3.4 2.2 3.4 0l-.1-4.7z" style="stroke:#000;stroke-width:.3;stroke-dasharray:none;stroke-opacity:1"/><path fill="#ffd100" d="M407.3 251.7c.4 0 .8-2.4 2-2.9a33 33 0 0 0 9.7-6.5h-1q-7.8 5.4-17.1 7.2l-1-.8c3.9-4.4 9.5-6.4 14-10l.3-1.4-.8-.2-4.5 1.3-5.9.5-.2-.5 2.5-1.5c.4-1-1.4-.5-2-1.2l-.1-.7 6.3-2.7.3-.8c-.8-.7-2.4.6-3.2-.7.6-1 2.3-1 4-1.4-.2-.2 1 .6.7-.4 1.5-.4 3.7-.8 4-2.5-1.4-.3-2.7.1-4.2 0-3.5-1.6 1.8-1.3 1.2-3-3-.4-5.9 0-9.1 0-2.4-.2-5.9.4-7-1.5 1.8-.6 4-1.6 5.9-1.6-.6 0-2.2-.8-2.4-1.4l8.7-.5 7.4-1.5c.7-.8-.5-1.4-.7-1.7-4-1.4-8.3-3.4-12.8-5-.8-.6-2.2-1.3-2-2.4 3.3-.4 6.1 2.3 9.2 1.9 3.3-.3 7.3 2.5 10.9 1.5q0-1-1-1c-5.3-3.7-10.9-6.6-15.5-10.2-.2-1 .9-.5 1-.8l-.2-.7-6.2-3.9.9-.6c6.8.5 12 4.6 18.5 7.2.5.2.8-.7.4-1q-4-2.4-7.7-5.5c1.4-2.4-2-3-1.9-5h.7c6.5 3.7 13.6 9.6 20.6 12.3l1-.6c-5.1-6-10.8-9.9-16-16 0-.6-1.4-1.5-.2-2l5.8 3.9V186c4.5 2.7 8.4 7.3 12.6 9.4-2.5-3.4-3.3-7-6.1-10.4l-1-2.5c1.3-.6-.5-1.3 0-2.2.2-.5.7.2 1.2.2l10.3 12.4.8-.6-.4-1c.3-.4-.3-.7-.5-.7-1.3-3-2.7-5-3.7-7.9 1.1-.7 1.4 2 2.5 1-.4-1.3 1-.8 1.3-1.7.2-1.1-1.3-3.4-.3-4.9 1-.2 1.4 1 1.7 1.5q1.6 6.5 6.2 12.1c1.8 1.2 1 3.2 3.3 3.8 2.2-1.7 1.9-5 3.7-7.2q1.6.2 2.5 1.7l1.7-1 1.5 1.3c.6 0 1.4-1.8 2.2-.8.5 2.3-.3 4.7-.8 7.1l.4.7.5-.2 6.5-15.2 1-1.2.6.5-1.8 6.3c.6.5 1.2-.6 1.7 0-1.2 2.5 1.3.1 1.8.9.1 3.5-1.8 6.4-.6 8.9 1.1.5 2.8-.2 3.6-1.2 1.8-3.6 4.6-7.4 6.2-9.9h1c-1.6 4.5-4 8.3-5.1 12.3.6.5.5-1.4 1.5-1.3l.7-1a25 25 0 0 1 6.6-5.9q1-1.3 2.8-2.4c1.3.3.5 1.6.7 2h.6c1.2.7 0 1.7.4 2.5.6.1 1.8-1.4 2.8-1v1l-4 5.2-.5.3-2.3 2.5-3 4.7.4.8c3.3-3 6.6-3.9 9.7-6.9l2-1.2 1.2-.3c.3 1.8 1.9 1.8.6 3.1l1.3.1.5.6c-2.5 1.4-4.3 4-7 4.7-2.8 1.9-5.4 1.9-7.2 4.1l.4 1 .3-.4c3.7-.8 7-1.9 11-2.8 1.2-1.3 2.4-1.1 3.7-1.5 1.4-.2.9 1 .7 1.9.4.2 2.5-.3 2 1.4l-.8 1 1.1 1a9 9 0 0 1-4.6 3 56 56 0 0 0-9.8 2.6v.6h2.3c3.9 0 8.6-2.3 13-2 .6 1.2.9 1.3 1.8 2.3l-1 1.1c.4.7 2.5.8 1.7 2-6 .5-10.1.8-15.2 1.4l-1.4 1.1.9 1.1.6.2c4.2-.8 8 .5 12.6 1.4v1.1c-.5 1.2 1 1 1.4 1.6l-1.3 1.1c-.6 1.6 1.4.6 1 1.9l-2.8.7-11.8-.7-1.2.6c1.7.8 3.6 2.8 5.2 3 3 2.7 7.9 3.6 11.5 6 .5.7 1.3.9 1.1 1.4l.5 1.3s-1.1.3-1.5-.3c-5-1.2-9.2-2.6-14.1-4l.3.6c1.3 1-.7 1-.8 1.8q5.7 5.2 13.6 7.7c2.8.4 4.2 3.6 6.9 3.7l.8 1.5"/><path fill="#b3875a" d="M535 198.2c-.2 0-2.7-7.7-2.9-10.7l6.4 2.8s-.6 5-3.6 8" style="stroke:#000;stroke-width:.3;stroke-dasharray:none;stroke-opacity:1"/><path fill="#ffd9ee" d="M529.3 172.1s-5.6-4.5-10.8-9.3-7.6-6.3-10.4-9.7a13 13 0 0 0-8.4-4.8c-2.6-.3-6 0-7.7-.1-1.3 0-2.2.4-1.9 1.8l.5.6c.1.3-.3.5-.4 1 0 .5.5.8.5 1l-.3.8.3 1v.6c0 .1.2.8 1.2.9h2.8l.5.2c.3.3 1.3-.3 1.3-.3.4-.4.5-.5.6.9q.7.5 2.9 1c3.8 1 3.5-.4 5.5 2 2.1 2.5 16.5 22.3 22.1 25.9a40 40 0 0 0 11.5 4.9c-2.5-4.6 13.8-14-7.3-13.6l-2.5-4.8" style="stroke:#000;stroke-width:.3;stroke-dasharray:none;stroke-opacity:1"/><path fill="#bbbcbc" d="M608.8 141.3q-.1-1.7-1.8-1.8c-1.7 0-1.7.8-1.7 1.8q0 1 .8 1.4v4.4l2-.1v-4.3q.6-.6.7-1.4" style="stroke:#000;stroke-width:.3;stroke-dasharray:none;stroke-opacity:1"/><path fill="#ffd9ee" d="M605.7 171c.7-4 2.5-8.2 2.5-15.2 0 0-2.1 0-2.5-1.9s-.3-3.4-.3-3.4-2-.5-1.4-1.2l.3-.6c-.5-.6-2-1.9 0-2l4.2-.2c.5 0 .7 0 2 1.6 1.5 1.5 2.2 1.2 2.7 4.5s1.2 11.4-.7 19c-2 7.6-5 19.6-8 22.5-3 3-5.2 2.4-5.5-1.2l-.5-5.4c1.2-.8 7.2-16.4 7.2-16.4z" style="fill:#ffd9ee;fill-opacity:1;stroke:#000;stroke-width:.3;stroke-dasharray:none;stroke-opacity:1"/><path fill="#ffd9ee" d="M322.2 142.8s2-1 2.6-2.6.5-2.7.3-6c0-3.4-.2-4-.2-4s-2 .9-2-1c-.2-1.8 0-4 0-4s-.4-1 .2-3 3.2-5.5 4.8-6 4-2.4 4-2.4l5.9 2.2q2.6.9 3.1 6.4c.5 3.8.1 4.2-.3 6.7s-1.2 2.8-1.3 6.7-.7 6.3.8 9.2l-.3-.9s-.2 4.2-.8 7c-.7 3 0 3.8-2.2 3.8s-6.3.1-7.8.3c-1.5 0-2 .9-3.4-2.4-1.5-3.4-3.4-10-3.4-10"/><path fill="#61619e" d="M296.5 191s4.5 2 4.4 5c0 0 .1-11.2-.4-14.3 0 0-.5 6.4-3.8 9.5"/><path fill="#d18644" d="M290.7 114.8c-2.4 0-2.5-.7-2.5-.7s-.4-1.3-1.6-2.9a15 15 0 0 0-1.4-4.2c.2-.8.7-3-.2-4.6 2-.4 2.8-2 3.7-3.8.8-2 .5-1.2-1.2-1.4-1.8-.2-5.2-.4-6 4q-2.9 2.8-2.2 6.4c-1 3-.1 3.4.4 4.1-.7 1.2.1 2.6.1 2.6-1 2.3-.8 3.6 0 5.2l.3.4v.1q-1.3 3-1.3 5.6c0 .3.8.4 1.4.3 1.4-.2 4.3-1 6-1.7l2.1-1.2c4-2.8 5.7-4.9 6.2-6.4.3-.9.5-1.6-.3-1.7z" style="display:inline;fill:#f2a900;fill-opacity:1;stroke:#000;stroke-opacity:1;stroke-width:.3;stroke-dasharray:none"/><path d="M290.4 116.3c-2.4.8-3.3 2-5.4 3-2.1 1.1-1.3 1.3-2 1.8l-2.3 1.5q-.9.8-1.1 1.7c-.4.6.3.6 1.1-.2s1.5-.8 4-2l3.9-1.9c1.5-.5 1.3.6 2.4-1.3.8-1.4.8-1.8 1-2.3q1-.3 1.7-.7c1-.7-.9-.4-3.3.4"/><path fill="#fff" d="m290.1 137.6-2.4-18.2-1.5.9 2.3 17.6z" style="stroke:#000;stroke-width:.3;stroke-dasharray:none;stroke-opacity:1"/><path fill="#ffd9ee" d="M292.6 192.5q-7-3-9.7-22.4c-1.6-12.9-3.2-21.2-1.4-24.2s2.3-7.1 3-8.7c.7-1.7.7-4 2.1-5.8s3.7-3 2.5-1.4c-1.1 1.6-1.1 1.4-1.8 4.2-.7 2.7-1 4.3 1.1 3.4s5.7-.1 4.9 1.2q-1 1.2-1 1c0-.3 2.1.7.7 1.7l-.6.3s1.8.7.9 1.6l-.7.4c.8.5 1.1 1.4-.2 2.1 0 0-1.9 1.6-4 4.2-2 2.5-2.7 1.1-1.8 4.8s6.5 17.8 6.5 17.8c3.9-.7 8.4 1.3 7.6 7.4-.5 7-4.4 14-8.1 12.4z" style="stroke:#000;stroke-width:.3;stroke-dasharray:none;stroke-opacity:1"/><path fill="#f2a900" d="M458.3 232.5a11.8 11.8 0 1 0-7.7 1.4" style="stroke:#d18644;stroke-opacity:1;stroke-width:.3;stroke-dasharray:none"/><path fill="#197352" d="M380 257.9s1.9-1.9 5.6-3.7 5-2.8 7.8-1c2.8 1.9 5.6 2.8 5.6 2.8s3.7-2.3 6.9-4.6 2.3-3.7 6.4-2.8 14.3-1.8 18-3.7c3.7-1.8 5.6.5 8.8-3.7 3.2-4.1 3.2-3.7 7.9-5.5 4.6-1.8 3.6-5 9.6-3.2s9.3.9 18 7.8c8.8 7 14.3 9.3 18 13s7.4 6 7.4 6 3.7-1.5 7.4-3.3 5-3.2 7.9-1.4c2.7 1.9 5 2.3 5 2.3v33.7l-139.8 1-.5-33.8" style="stroke:#000;stroke-opacity:1;stroke-width:.5;stroke-dasharray:none"/><path fill="#bbbcbc" d="m608.3 155.8.9 13.2q-1.8 1-4 0l.9-14q1 .8 2.2.8z" style="stroke:#000;stroke-width:.3;stroke-dasharray:none;stroke-opacity:1"/><path fill="#2c5234" d="M410 327.5c5.1-.4 6.5 1.4 10.7 1 4.1-.5 17.5-4.2 17.5-4.2 7-3.2-3.7-4.1-3.7-4.1l-5-.5s-1-.5-5.1-3.2c-4.2-2.8-5.1-1.4-10.2.4a13 13 0 0 1-4.3 1.1c-1 0-1.7-.4-3-.6-3.3-.5-8.3 3.2-8.3 3.2s-1 1.4-6 0-4.2-2.3-12-2.3l-.2.2v1.8l.8.5c2 1 9 5 18.1 10.3a34 34 0 0 1 10.8-3.6m108.9-7.8s-6.5.4-5.6-4.2-3.6 1-3.6 1-3.3-.5-9.7-4.7c-6.5-4-4.2 1.9-4.2 1.9l-6 1.8c-3.1.7-6 2.3-9.2 2.8-1.8.3-2.3 1.8-5.5 0a20 20 0 0 0-11.6-3.2c-4.1.4-6.4 6.4-6.4 6.4s-2.3 1.9.4 4.6c2.8 2.8-1 1.9-5 2.8-4.2 1-5.1 0-8.8 0-10.2.5-21.7 4.6-11.1 6s28.6 1 33.7 1.4c5 .4-2.8 4.6-13.4 4.6s-20.8-1-21.7-2.8-7.4-4.1-8.7-1.8c-1.4 2.3-7.7 2.2-9 3l36.6 21.1h.1l69-39.6.8-.5z"/><path fill="none" stroke="#000" stroke-width=".7" d="M450 424.9c-74.7 0-109.3-23-109.3-23-10.6-7.5-1.1-24.1 1-30.5h-54s1 4.1 5.6 9.7-.5 6.4-12 6.9l-1.9-5.6c-8.7 1.2-9.2-.4-12-5.5-2.7-5-12-21.2-11.5-22.6 1.9-5 13.9-6 29.6-6.5l25-.6 11.6-.2 28.6-.5m35.4.3c9 .5 16 3.7 14.7 9.4-1.8 8-4.1 15.2-6.9 24.4 25.8 5 29.5 7.7 56.3 7.7m-180.8-8c-2.7-5-1-8.8 18.4-9m-8.4 11.1c7-.4 10.2-4.7 14.9 0m47.4-11c3.1-6.9 5.1-12.4 11.6-9.7 7.4 3.2 43.4 13.4 47.5-5.5m-53.8 6c-3.7 6.7 10.4 12.4 47 18.4m56 44.3c74.8 0 102.2-20.6 111.3-24.2 9.5-3.7 3.9-16.4-3.6-29.3h54s-3.4 6.6-5.5 9.7c-2.8 4 .5 6.4 12 6.9l1.8-5.5c8.4 1.8 9.3-.5 12-5.6 2.8-5 8.7-15.3 11.6-22.6 2.1-5.6-13.9-6-29.6-6.5a5367 5367 0 0 0-92.2-1.3c-11.1.4-25.9-.1-23.1 9.6 2.3 8.5 4.4 16.5 7.4 25.2-25.9 5-29.1 7-55.9 7m179.8-7.9c2.8-5 1.2-9.2-18.2-9m8.3 11c-6.6-2-11.3-5.5-13.9-1.3m-48.5-9.7c-3.6-6.5-4.1-13-11.5-9.7-7.4 3.2-43.4 13.4-47.5-5.5m54 6c2.7 7.3-10.9 10.6-46.6 19.1" style="stroke-width:.696;stroke-dasharray:none"/><path fill="#ffd9ee" d="M317.2 340s-2.5 1-4 2.8c-1.4 1.7-3.4 1.7-1.4 3.2 2 1.1 4 3.4 7.5.6 2.2-.8 6.6-5.6 6.6-5.6l-3-1.2-2-1-1.2-.4zm265.6 10.4c2 .7 4.5.5 5.3.3 1.8-.3 2.5-1.4 1.8-2-1.8-1.7-1-1.3-2.2-2-1.1-.6-5.5-3.4-5-4-.8-1.5-4.8 3.8-4.8 3.8 1 1.2 2.7 3 4.9 3.9z" style="stroke:#000;stroke-width:.3;stroke-dasharray:none;stroke-opacity:1"/><path fill="#ffd9ee" d="m540.7 352.7 8.5-8.3-10.4-6.8c-.7-.3-4.2 8.5-5.4 10.2-1.2 1.8 7.3 4.9 7.3 4.9"/><path fill="#2c5234" d="M469.6 272.2s2.8-4.2-4.2-4.7-8.7-2.3-14.7-1.3-10.2.9-10.2-1.9 3.3-3.7 6-1.8c2.8 1.8 3.3-.5 6.5.4s4.1 1 6.5-.9c2.3-1.8 2.3-2.3 6-1.8 3.6.4 4.6 0-1-2.3-5.5-2.4-6-1-3.2-5.6s1.8-7.4-2.3-6.9c-4.2.4-4.2 2.3-6 5.5s3.7 5.1-3.7 7c-7.4 1.8-15.2.4-18.5.4-3.2 0-3.2-1-5.5 3.2s-2.3 3.7-9.7 4.7-7.4 2.7-5.5 4c1.8 1.5-.5 2-3.7 2q-4.6 0-9.2.9c-3.2.4-1 3.2-1 3.2s4.7 1.4-1.8 1.9-16.6 5-8.8 5.5 13 .4 14.4 2.3l3.2 4.6h-22.6v-21.2c6.9-3.7 12-7 16.6-6.5s7.8 3.7 10.6 1.9 6.5-2.3 6.5-2.3 6.4 1.8 7.4.4l2.7-4.1s-5.5-2.8-7.4-3.3c-1.8-.4-2.7-1.8 1-2.7 3.6-1 .9-4.6.9-4.6l4.1-.5s2.8 3.7 1.4 6c4.2 0 3.7-1.4 8.3 1.8s9.7 1 9.7 1 10.2-4.2 8.8-8.8-3.2-8.8 1.4-9.2c4.6-.5 4.1 2.3 4.1 2.3s4.6-1.9 8.3-1.9 6.5-1 6.5-1l5 3.8c-7.3.9-8.2 0-9.6 3.7s-1.9 6.5-2.8 7.8c-1 1.4 3.7 1.4 3.7 1.4s3.7 1 7-2.8c3.1-3.7 6.8-6.4 6.8-6.4s5.9 3.4 9.1 6.2c3.3 2.8 7.1 6.5 10 8.2 2.7 2.1 6 5.3 10.6 6.9 4.1 1.7 9 2.9 9 2.9l-.2 6.7s-7.6-4.2-13.1-.5-5 1.4-9.2 1.4-9.3-1.4-12-1.4c-2.8 0-10.6 2.8-14.3 2.8s-4.2 0-9.3-1.9c-5-1.8-4.6-.4-7.8 1s-6 0-10.6 2.7-7.9 1.4-7.9 1.4 3.7-1.4.5-4.6-1.9-5.5-1.9-5.5-4.6-7 0-5.6c4.7 1.4 5.1 4.2 11.1 5.1 6 1 14.3 1 14.3 1z"/><path fill="#63666a" d="M447.7 111.2c-.7-1.4-.3-1.9.2-3.1s.3-1.6.2-2.3c-.2-.7-1.6-1.5.5-1 2 .5 1.7.2 3 .3q1.8.4 1.3 2c-.5.8 0 1.3-1.4 2q-1.9.9-2.4 1.5c-.3.6-1.4.6-1.4.6m6.3-1.6c.8-.3 2 0 1 .6s-1-.6-1-.6m-9.6.4c.6-.4.2-1 1-1 .6-.2.6-.2.4-1.3-.1-1 .2-1.2-.8-1.7s-2-.7-1.3.2.6 1.7.6 1.7l-1.3 1.2s1 1.2 1.4.9m15 5.4c0-1 .6-1.3-.2-2-1-.7-1.6-1.7-.4-1s3.1 1.4 2 2.3c-1 .8-1.3.7-1.3.7"/><path fill="#63666a" d="M458 115c0-1 1-1.9.8-.9s-.9.9-.9.9m-25.2 13.8c.7-.4.1-.8 1-.7.7.2.6.2 1 .6q.6.8-.2.6c-.7-.2-.5 0-1 0zm-1-1.8q-.3-1.7-1.1-1.2c-.6.2-1.2-.5-.5-.5s.7-.3 1.6.6c.9 1 1.8 2.1 1 2q-1-.3-1-.9"/><path fill="#63666a" d="M470.2 147.2a6 6 0 0 1 .7-3.7c.7-1.3 1.4-2.7.2-3.6s-1-1.3-1-2.2 1.2-1.6-1-1.7c-2-.2-3.2.3-5 1s-2.9 0-4-1q-1.3-1.6-1.6-2.6c-.4-.7.1-1.8-.2-3q-.6-1.6.7-3.6c.8-1.4 1.7-2.3 1.7-2.3l.5-1.5s-.3-.7 1.2-.9q2.2-.5 3.5-1.4c1.3-.9 1-.2 1.6.5.5.7.6.4 1.9.7q1.7.5 1.3-.3-.2-.6 1.3-.7c1-.2 2-.5 1.7-1.7-.4-1.3-.4-1-1.2-.7-.9.3-.9 0-1.4-.7q-.9-1 0-1.8c.7-.5 1.7-1 .3-1.7s-3-.9-2.2.5 1.4 1.4.7 2.4.5 2.6-.5 1.6.5-1.7-2.1-2.6c-2.6-.8-2.6 0-1.2.7q2.2 1 2 2c-.1.8-.6 0-.6 0l-1.8-1.1c-1.2-.7-2.3-.6-2.4.7-.2 1.9.5 2.2-1.4 2.7s-1.7.2-2-1-1.3-2 .5-2q2.5-.1 1.2-1.3c-.9-.7-.9-.7-.2-1.7s.5-2 2-2.4c1.3-.6 1.3-1.4 1.1-2-.1-.5-.7-.6-1.5-1.2s-2.3-2-1.6-.8q1.2 1.8 1.7 2.2c.4.4-.3 1.4-1 .5s-.7.4-1.4-.3q-1.2-1.1-1-2.8c.2-1-.7-1.9.7-1.9s2 0 2-1 .4-.7-1.9-1.6c-2.2-.8-4.1-1.2-4.3-2v-.3a29 29 0 0 1 23.1 17.7l-.2-.8.1 2.7c.2 1.4.4 2.6-.1 4.4-.6 1.7-.9.1-1.6-1.2s-2.8-3.7-2.8-3.7l-.7.5 3 4 1.9 2.8 1-1.4s.4 3.8-.3 5.9a22 22 0 0 0-1.2 5.8c-.4 3.2-.7 2.5-1.2 3.9s-1.5 3.3-2.6 5.2l-2.6 1.5-2-1.5m-35.2.8s-.2-1.4-1.8-3c-1.5-1.4-2-3-2.8-5q-1-2.5-.1-4c.7-1.3 1.2-1.5 0-2.5s-1.8-.7-2-3c0-2.2-1.1-2.7-1.8-4-.7-1.5-1.2-1.7-.4-4.6.9-3 .6-5.7 1.3-6.9l-.8 1.7c3.2-6 8.5-10.9 15-13.5l.1.8q-.1.6.5 2c1 1.9 1.2 1.5-1.2 2.2s-3 .7-2.6 2.3 0 2.6 0 2.6l1.6-1.4c.7-.5.7-.9 1.3-1.6.7-.6 1 .2 1.6.4.5.2.2-.7.7 1.7s1 5 .2 4.2c-.9-1-.2-1.3-1.6-1.4-1.4-.2-1.9.3-1.9.3s1.2 1.2 0 1.6c-1.2.3-1.2-.4-1.9.3s-1.4.2-2.4 1.4-2.3 2-2.3 2-1.2 0-1.2 1.5-.5 2.2-.7 1.1c-.1-1-.1-1.5-1.5-2s-2.5-.9-2.8 1c-.3 2-.2 4.7.7 3.7s1.9-1 1 .3c-1 1.6-.5 1.7 0 2.4s.4.5.2 1.6c-.2 1 0 1.9.5 1.9s.7.7 1.6 0q1.2-1 2.8.1c1.6 1.1 2 .2 3.2 2.1s1.4 1.6 2.5 2.1c1 .5.1-.5 1.9 2s2 2 3.8 2.7 5.5 1.4 3.8 3c-1.7 1.5-1.6 1.3-1.7 2.3l-.6 1.7c-.1 0-2.8-2-5.3-1.7-2.6.2-6.7 2.3-6.7 2.3z"/><path fill="#fff" d="m423.2 291.9 9.5-.2 2 5.7c-1.9 0-3.3-.8-3.3-.8l-9.5.1c2.2-3.2 1.2-4.8 1.2-4.8zm-10.4-4.1-7.3-.6s.7-2.8-.9-6l8.4 1.3a7 7 0 0 1-.2 5.3zM289.3 149s17 193.4 17.4 196.2c0 .6 0 2 .4 2 1.4.4 2.1-.1 2.1-.1L291 147.4Z" style="stroke:#000;stroke-width:.3;stroke-dasharray:none;stroke-opacity:1"/><path fill="#fff" d="M525.6 332c7.7-4.3 7.4-9.5 7.4-14.1v-72.7l-2.4-2.6a25.4 25.4 0 0 1 2.2-41.1l2.5-1.7-6.1-11a37 37 0 0 1-29.5-26h-99a35 35 0 0 1-29.4 26l-6.1 11 2.4 1.7a25.5 25.5 0 0 1 2.2 41l-2.4 2.7v72.7c0 4.6-.3 9.8 7.5 14.1l75.1 43.3s67.8-39 75.6-43.3zm-34.7-156.3a48 48 0 0 0 25.8 23.2 38 38 0 0 0 3.4 51.5v69.9l-.8.5c-5.3 2.9-48.2 27.4-69.3 39.6-21.1-12.2-63.6-36.7-68.9-39.6l-.8-.5v-69.9a38.4 38.4 0 0 0 3.4-51.5 48 48 0 0 0 25.8-23.2h40.6z" style="display:inline;fill:#fff;fill-opacity:1;stroke:#000;stroke-width:.3;stroke-dasharray:none;stroke-opacity:1"/><path fill="#ffd90f" d="M524.5 330c6.3-3.4 6.3-7.2 6.2-11.6v-72.3l-1.7-2a27.7 27.7 0 0 1 2.6-44.6q0 .2.7-.4l-4.6-8.2a39 39 0 0 1-29.7-25.8h-95.6a37 37 0 0 1-29.7 25.8l-4.6 8.2.7.5a27.6 27.6 0 0 1 2.6 44.6l-1.7 1.9v72.3c0 4.4 0 8.2 6.3 11.7 7.2 4 65.9 37.9 74 42.6 8.1-4.7 67.2-38.6 74.5-42.6m-32.2-156.5a45 45 0 0 0 28.3 24.4 36 36 0 0 0 1.7 51.5v72.1c-.1 0-.4.4-1.9 1.3-5.7 3-50.6 28.7-70.4 40.2a8086 8086 0 0 0-70-40.2c-1.4-.9-1.7-1.4-1.8-1.4l-.1-3v-69a36 36 0 0 0 1.7-51.5 45 45 0 0 0 28.3-24.4h42z"/><path fill="#f2a900" d="M436.1 149.7a10 10 0 0 0-7.4-3.1c-1.9 0-3.5 1.4-5.8 2.1l1 1c2.2 2 2.4 5.8 6.5 6.6h-.4c3.7.7 12.7 0 12.7 0-4.1-.8-4.3-4.5-6.6-6.6" style="fill:#ffd100;fill-opacity:1"/><path fill="#ffd90f" d="M460.7 149.7a10 10 0 0 0-7.4-3.1c-2 0-3.6 1.4-5.9 2.1l1 1c2.3 2 2.5 5.8 6.6 6.6h-.4c3.7.7 12.7 0 12.7 0-4.2-.8-4.3-4.5-6.6-6.6" style="fill:#ffd100;fill-opacity:1"/><path fill="#f2a900" d="M477.9 146.6c-2 0-3.6 1.4-5.9 2.1l1 1c2.2 2 2.4 5.8 6.6 6.6h-.4c4.7.4 8.2 1 8.2-3s-4.5-6.4-9.5-6.7" style="fill:#ffd100;fill-opacity:1"/><path fill="#f2a900" d="M436.8 46.2c-4.1-.4-4.8 3-4.8 3s2.8-1.1 4.6-.4l1.3.3.5-1.7z"/><path fill="#ff3515" d="M544.5 154.5s-1.7 1.3-3.8 2.4-2.1 3-2.8 7.2-2.8 2.1-5.5 4.2c-2.8 2-3.3 2.3-3.5 4.1-.2 1.6 0 1.4 2 4.2 2.2 2.8 6.5.5 6.5.5 1.7 1.7 8-4.7 7.3-8.6-.3-3.5 6.5-16.3 2.6-17.5z" style="stroke:#000;stroke-width:.3;stroke-dasharray:none;stroke-opacity:1"/><path d="M560.2 146.3c-3.9.8-11.6 2.4-13.1 5 0 0-.7 4-2.4 6.4a12 12 0 0 0-2.5 4.7c-1 3.7 2.8 9-.6 11.4-3.5 2.4-4.2 1.2-4.5 3-1.4 6.5 2.2 9.5-2.1 21.6 0 0 2 4.7 4.1 3s.4-3.4 3-7.7 12-17.6 12-17.6 3.7 9.8 2.1 14c-1.5 4.1-2 6.2-.6 7 2.2-2 4.3-2.7 9.1-3.6l1.4-.2 4.4-.6h3.2a32 32 0 0 1 13.5 2.1l1.4-1.5c1-1.3 6-2.1 6.8 2l1 2.8s0-5.7 1-10.4.4.3 1.6 0c1.2-.4 1.7-2.4 2.6-5.2s2.4-3.4 3.5-7c.6-2.2 1.6-3.3 1.1-4.1-.2-.4-1.1-.4-2.1-1.2-2.9-2-4-5-5.4-9.3s-2.5-6-3.5-8c-1-2.7-11.3-5.9-11.3-5.9l-8.6-4.6z" style="fill:#f2a900;fill-opacity:1;stroke:#000;stroke-width:.3;stroke-dasharray:none;stroke-opacity:1"/><path fill="#b3875a" d="M573.4 167.4s-.5 4.5-2.2 5.7c-2.8 1.8-10.1-.3-10.1-.3s3.8 1.6 6.2 2 6-.3 6-.3l.6-6"/><path d="m589 349.5-.7-.8-.7-.7.4.9.7.8z" class="UnoptimicedTransforms" style="fill:#000;fill-rule:nonzero;stroke:none;stroke-width:.3;stroke-dasharray:none;stroke-opacity:1" transform="rotate(67 563 311.8)"/><path d="m589 349.3-.6-.9-.7-.6.4.8.7.9z" class="UnoptimicedTransforms" style="fill:#000;fill-rule:nonzero;stroke:none;stroke-width:.3;stroke-dasharray:none;stroke-opacity:1" transform="rotate(70.7 562.9 312.7)"/><path d="m588.7 349-.6-.8-.5-.3-.2-.1.5.7q.3.1.6.7z" class="UnoptimicedTransforms" style="fill:#000;fill-rule:nonzero;stroke:none;stroke-width:.3;stroke-dasharray:none;stroke-opacity:1" transform="rotate(76.4 562.6 314.7)"/><path fill="#d18644" d="M574.3 347s2.7 2.9 5.5 4c2.8 1.3 3.8 1.4 6 1.1l4.3-.7c0-.8.2-1.8 0-1.8q-.7.6-1.3 0c-.3-.2-.7.4-1.3.2-.2-.1-.7.7-1.2.3-.2-.3-1 .5-1.3.3-1.2-.7-.5.3-2.6-.7s-4-3.1-4-3.1l3.8-3.1c.7-.6.4-3.2-3.7-.4-4 3-4.3 4-4.3 4" style="stroke:#000;stroke-width:.3;stroke-dasharray:none;stroke-opacity:1"/><path fill="#d18644" d="m544.8 347-2.4-2.7 1.9-3-1.3-.8-2 3.3-4.2-1.4 1.4-3s-2.5 1.2-3.4 3.6c-.9 1.5-3.3 5.5-1.9 6.7s3.5 4 5.4 4 2.6-.4 5.2-2.3 5.8-5.5 5.8-5.5l-2-1.9zm-5.6-.8c-.5 1.6-.1 2-.1 2s.7-.1 1.6-1c.8-.9 1.7-.6 2.2-.1q1.1.8 1.3.8c.2 0-2 4.4-3.9 4.3-.4 0-.3-1-.7-1q-.9-.1-1.2-.7c-.3-.4-.7-.1-1.1-.4l-.6-.6c-.3-.4-1.2 0-1.4-1.3 0-.4-.5-.8-.5-1.3 0-1.2 1.5-3.4 1.5-3.4s3.5 1.2 3 2.7z" style="fill:#d18644;fill-opacity:1;stroke:#000;stroke-width:.3;stroke-dasharray:none;stroke-opacity:1"/><path fill="#f2a900" d="M593.7 200.9c-1.7-2-14.3-3-20.1-2.7-6 .3-10 .3-13.8 1.3s-6.3 5.1-6.3 5.1-.7 4.2-2.4 8c-1.8 3.8-1.8 9-3.1 21.4-1.4 12.5-.4 18 .6 25s-.6 8.3-2 19.7-2.1 20-3.5 27.7-1.7 10-1 14.9c.7 4.8-1.4 7.2-3.5 11-2 3.8-4.2 7.6-4.2 11.4 1.7-3.7 5.2-5.5 8.4-2.7l6.3 5.6 22.7 1s2.8-.4 5.9-3.2c3.1-2.7 3.5-2.4 5.5-.3s3.7 1.4 5.6 1 2.4-2 4.8-3c2.5-1-2-20.9-2-32.3s1-40.5 2-47.9z" style="stroke:#000;stroke-width:.3;stroke-dasharray:none;stroke-opacity:1"/><path fill="#b3875a" d="M590.9 262.8S588 280.1 587 295s-.4 24.9-2.1 31.8-.4 14.2-.4 14.2-.3 2.8-1.4-2.7-4.5-12.9-3-5.6c1.3 7.3 2.2 10.3 2.2 10.3 1.4 1.6 2.8 2.8 4.5 2.3 2-.5.8-.8 2.6-3.6 1.7-2.7 2.7-.3 1-9.7s.4-23.8 1-30.1c.7-6.2-.3-6.9-.3-18s-.4-21.1-.4-21.1"/><path fill="#f2a900" d="M593.7 200.9c-1.7-2-14.3-3-20.1-2.7-6 .3-10 .3-13.8 1.3s-6.3 5.1-6.3 5.1-.7 4.2-2.4 8c-1.8 3.8-1.8 9-3.1 21.4-1.4 12.5-.4 18 .6 25s-.6 8.3-2 19.7-2.1 20-3.5 27.7-1.7 10-1 14.9c.7 4.8-1.4 7.2-3.5 11-2 3.8-4.2 7.6-4.2 11.4 1.7-3.7 5.2-5.5 8.4-2.7l6.3 5.6 22.7 1s2.8-.4 5.9-3.2c3.1-2.7 3.5-2.4 5.5-.3s3.7 1.4 5.6 1 2.4-2 4.8-3c2.5-1-2-20.9-2-32.3s1-40.5 2-47.9z" style="stroke:#000;stroke-width:.3;stroke-dasharray:none;stroke-opacity:1;fill:none"/><path fill="#b3875a" d="M563.2 335.2c2.7-18 5.5-33.6 6.5-38.8s3.2-12.1 3.2-19.4.3-9.3 2-18.4a116 116 0 0 0 2.5-24.5c0-9.4-2.1-19.8-2.1-19.8s1.7-1.7 2.4 2.1q1 5.6 2 2.4c.8-2 1.5-3.4 2.5-1s2.4 2.4 2.4 2.4l1-.7 1.8 1.7 2.4-2.4 2.2-3.6c-.5 0 0 6-1 12.2-2 6.3-2.2 5-2.2 9.4s.3 6.3.3 6.3-1 .6-1.4-3.8c-.3-4.5-1-8-2 1s-4.5 17.7-3.2 8.3c1.4-9.3 2.5-20.8 0-18.7-2.4 2.1-3.4-.3-3.8 8.3s.7 8.3-.7 13.5 0 7-1.7 17-2.8 9.7-3.1 16.3c-.3 6.5 1 10.3.3 19s-1 9.7-2.7 10.4-1 0-1.7 8.3-1.8 14.2-1.8 14.2c-.2 1.6-4.6 4.8-4.1-.4"/><path d="M322.6 117.6c-.6.4-2.6 1.5-3.4 2.8q-.8 1.7-.8 3.8c-.2 2 1 4.2.2 6.1-.8 2-1.3 1-4.4 4.3-3.1 3.4-3.1 7.5-5.8 12.8 0 0 2-.7 5.5-1.2 3.4-.6 8.4-3.5 8.4-3.5s2-1 2.5-2.5c.6-1.7.5-2.7.4-6l-.3-4s-2 .8-2-1c-.2-1.9 0-4 0-4s1.1 0 1.7-2 3-5.4 4.5-6c1.7-.7 3.8-2.1 4-2.2.4.2 1.7 1.7 3.4 2.3 1.9.7 4 1.3 4.4 5 .5 3.9.2 4.2-.3 6.8s-1.2 2.8-1.3 6.7c0 4-.7 6.3.8 9.2 0 0 1.5 2.3 5.3 3.5 3.8 1.1 7.2 1.7 7.2 1.7h.6s-.9-3.6-1.7-5.3c-.3-.8-.9-2.2-1.5-2.3-.2 0-.5-1.1-1-1.3-2-.7-.2.2-1.1-2.4-1-2.7-1.2-4.6-3.9-8.3 1.8-5.8-1.7-12-3-13.8l-3.6-6.3c-1.7-2.4-3-2.7-5-2.7h-1.6c-3 0-4.1 1.3-5 2.4l-2 3.9z" style="fill:#d18644;fill-opacity:1;stroke:#000;stroke-width:.3;stroke-dasharray:none;stroke-opacity:1"/><path fill="#f2a900" d="m339.2 113.6-2.3-.9-1.2-.6-1 .1c-1.1-.3-1.7-.9-2-.9l-1.7.8c-.5.1-1.1-.3-1.7-.1l-2 .8-3.8 1.8-1 3a16 16 0 0 1 9.3-3.3c4 0 7 .9 8.5 1.2z" style="stroke:#000;stroke-width:.3;stroke-linecap:round;stroke-dasharray:none;stroke-opacity:1;stroke-linejoin:round"/><path fill="#d18644" d="M404.5 301.2h26.3s2.4-1.4 3.8-3.4c-5.2 1.2-23.6.8-26.7.8s-4.4-.6-5.3-.8z" style="stroke:#000;stroke-width:.3;stroke-dasharray:none;stroke-opacity:1"/><path fill="#d18644" d="M445.3 219.8c.6-1.2 1-1.3 2.4-1.3s1.5-.5 2.5-.4 1 .8 1 .8-.6-.8-1.6 0c-1.3 1.2-3.2.8-3.2.8l-1.2.6zm14.6 0c-.6-1.2-.9-1.3-2.3-1.3s-1.5-.5-2.5-.4-1 .8-1 .8.6-.8 1.5 0c1.4 1.2 3.3.8 3.3.8l1.2.6zm-9.6 4.2 2.4.2 1.8-.3c.5 0 1 0 .2.3q-1.2.6-1.9.7-1 0-1.8-.4c-.5-.2-.7-.7-.4-.6m-1.3 2.9 3-.1h3.1l.3.5h-4.2c-1 .2-2.4 0-2.4 0zm5.2 2c-1 0-2-.4-2.7-.4s-1.5.8-.6.7m-1.3-6.4-2.3 2.2c-.4.4-.2.3-.2 1.4 0 1.2-.6 1.4-.6 1.4s1.4-3.8 2.7-5m5.4 0 2.3 2.2c.4.4.2.3.2 1.4 0 1.2.7 1.4.7 1.4s-1.6-3.8-2.8-5"/><path fill="#d18644" d="M315.3 347.4c1.5 0 6.9-3.8 6.9-3.8s-1.3-2.1-2.4-2.3c-1.5-.1-4 2.3-4 2.3s1-1.5 1.3-2.3c.2-.4.3-1.4.3-1.4l1-.7c1.2 0 3.8 2 5.2 3.6l2-1.6 1.6 1.4c-2 1.8-4.7 3.6-7 5.1q-2.3 1.3-5.3 1.5l-1.2-.3a9 9 0 0 1-3.2-2.4c-.4-.7.5-1.5.5-1.5s.4.8.8.7c0 0 .5.6 1 .6.2 0 .5.5.9.5l.7.4z" style="stroke:#000;stroke-width:.3;stroke-dasharray:none;stroke-opacity:1"/><path fill="#b3875a" d="M459 96.5c-.3-2.8-.1-1.1 1.4-1.3 1.6-.3 1.1-3.5 1.1-3.5s4.8-.7 7-.7c2 0 1.3-2.5 3.8-3.2 2.6-.7 1.9-1.6 1.9-1.6s.4-.7 2.8-.5c2.3.2 2.5-1 2.5-1v-1.5l2.5-.5.2-2 3.7-.3.5-1.4 3-.4-.2-1.4.9-.5-1-1.8h2.8l.3-2.5 2-.7-.9-1.4 1.6-.5-.7-2.3 1.4-.4v-1.5l2.1-.9-.2-1.6 2.5-.2-.5-1.6v-.2s2.6-.7 4-3.5 3.2-3.4 3.2-3.4l-1-1.2 1.9-1 .2-1.5s3.7-.7 7.9-2.3c4.1-1.7 5-5.6 5-5.6s-9.4 1.6-21.4 3-22.4 2.6-27.7 4.2-1 6-7.6 12.9c-3.9 4-9.7 1.8-11.3-1.2s-3.7-9-3.7-9h1.8l-1.8-3.4 1.8-1-5.3-2.7a7.5 7.5 0 0 0-8.7.9c-4.2-.4-4.9 3-4.9 3s2.8-1.1 4.7-.4c1.8.6 3.4-.7 4.1 9.6.7 10.4-4.4 8.6-10.1 8.4-4.9-.7-6-2.1-7.2-6-1.2-4 .2-6-4.6-9.5-4.9-3.5-20.5-6.2-29.8-7.8-9.2-1.7-21.9-5.1-21.9-5.1s.2 1.8 3 3.7c2.7 1.8 4.4 3.7 4.4 3.7l1.6 2.3c1.4 2 3.7 2.7 3.7 2.7l1.8 3c1 1.4 5 5.8 6.7 7.2 1.6 1.4 4.6 1.4 4.6 1.4q-1.6 0-1.8 2a9 9 0 0 0 3.7 2.4l-.5 1.6 3 .6-.5 2.4 4.2.9-1 1.3 4 .7-1 1.4 3 .7-.6 1.4 4.1.5-.7 1.8h4l-1 1.6 3.3.5s6.2 4.1 10.6 5.3c4.4 1.1 2.3 2.5 7.8.7l3.7-1.4c.5-.1 3 1 2.3 2.3-.7 1.4.7 2.5 2.1 5.5s.7 2.1 2.3 2.1q1-.1 1.2.6l1.9-.1q-.2-.7-.1-1.2c.2-1.6 1.2-1.8 1.2-1.8l2 1.3L449 91c-.7-3.3-.3-3.9-.3-3.9l1.9.5s1.4 4.6 4.6 6.9c1.8 1.3 2.1 1.5 2.2 2.2z" style="display:inline;fill:#573f28;fill-opacity:1;stroke:none;stroke-width:.3;stroke-dasharray:none;stroke-opacity:1"/><path fill="#b3875a" d="M557 179.9c-.4-2-.6-2.2 0-4.1.5-2 .6-.7.3-4.2s-.2-1.7-1.6-2.6-2-.7-1-3.5 2.6-1.9 1.6-5c-1-3-1.6-4.3-2-4.8s-.5 1.9-.8 4.8c-.4 3 0 3.5-.4 6.6-.3 3.1-.8 5-.3 5.7s1.4 3.2 1.4 3.2q1.3 3.7 2 7.6c.9-1.6 1-1.6.8-3.7"/><path fill="#ff3515" d="M534.8 198.6s2.2 4.5 4.3 2.8.4-3.3 3-7.6c2.6-4.4 12-17.7 12-17.7s3.7 9.8 2.1 14c-1.5 4.2-2 6.2-.6 7.1l-2.1 7.4s-.7 4.2-2.4 8c-1.8 3.8-1.8 9-3.1 21.5s-.4 18 .6 24.9-.6 8.3-2 19.7c-1.4 11.5-2.1 20.1-3.5 27.7s-1.7 10-1 14.9c.7 4.8-1.4 7.2-3.5 11-2 3.9-4.2 7.6-4.2 11.4l-1.3 2.6s-8.4 0-12.8.2c0 0 1.3-1.7 3.4-3 2.1-1.5 2.8-1.8 3.5-4.6s1-3 3.8-6.5 3.5-7.6 3.8-14.2l1.7-44.7c.4-10.4-.7-55.4 0-60.2s0-6 .4-7.6c.3-1.7-1.4-5.2-1.4-5.2z" style="stroke:#000;stroke-width:.3;stroke-dasharray:none;stroke-opacity:1"/><path fill="#b3875a" d="M558.7 335.2c3-8 5.2-19.8 5.9-26.7.6-7 .6-16-1-6.6-1.8 9.4-3.6 17.3-4.6 25.3s-1.4 10.7-.3 8m4.1-43.3c.4-6.2 1.4-7.6 3.5-12.8 2-5.2 1.4-4.9 3-13.9 1.8-9 2.9-13.1 3.2-18.3s1-7.3 1-7.3-.3 1.8-3 11.8-4.2 13.5-5.3 19.7-1 7.6-3 12.8c-2.2 5.2-1.1 4.6-1.5 9-.3 4.6 1.4 2.1 2.1-1M541 183.5c-.3-2.1-1.7-6.2-1.7-6.2s.3.3 1.4 0 1-1 2.4 2c1.4 3.2 1 3.2.3 6.3S541 194 541 194s.5-7 0-10.5m5.9-.3c1.4-1.4 1.7-.7 1.7-5.2s-1-4.9-.7-7-.3-3.4-1 .4-.3 4.5-.7 7l-.7 5.8zm50.2-14.4-.7-3.3c-1.6-4.1-1.2-5-2-7-.6-2.1-2.5-4.2-1.6-1 .8 3 .3 5.8 1.2 7.3.5 1 1 3 .9 4.9l-.3 1.6-.5 1.3c-1 2.3-2 3-2 3s1.9 1.9 2.4 9.3-.8 7.7-.8 7.7c.4.1 1.6 1.4 1.1 1-.3-.5.4-6.8 1-10.2.8-3.5 1.1-6 2-8s2.2-2 3-2.6c.6-.5.1-1-1.6-.3s-1.8-.9-1.8-.9z"/><path fill="#ffe8b8" d="M447 97.2v-1.1c.2-1.6 1.1-1.9 1.1-1.9l2.1 1.4s-.5-1.4-1.1-4.6-.3-4-.3-4 .3-3.1-2-6c-2.4-2.7-7.7-5.7-8-1-.1 4.6-.7 7.2-.7 7.2.8.3 2 1 1.5 2-.7 1.4.7 2.5 2 5.5s.8 2 2.4 2q.8 0 1 .7zm12-.8q0-1-1-3.2c-1.1-3-1.3-4-.2-4.8 1.2-1 1.4-1.6 1.4-1.6s-1-3-1.4-6.5-5.5-4.1-6.2-2.3-2 6.5-1 9.4c0 0 1.4 4.7 4.7 7 1.6 1.1 2 1.6 2.1 2.3zm-6.6-35s-1.6-.5-1.8 3.9c-.2 2.5-6.6-.6-10.8-.3-.3.5-1.1 1.3-1.7 1.5-.8 1.9-3.7 2.2-5.8 2.4-6.9.7-6.4-1.7-14-10s-6.7-6.6-17.3-9.5c0 0-12-3.3-19.4-5.1s-11.3-2-14.5-6c0 0 12.6 3.4 21.9 5s24.9 4.4 29.7 8c4.9 3.4 3.5 5.4 4.7 9.4 1.1 3.9 2.2 5.3 7 6 5.9.2 11 2 10.3-8.3-.6-7.8-1.6-9-2.9-9.4l.5-1.6-1.7-1.1c2.3-1.9 5.2-3 8.9-1.1l5.3 2.8-1.8.9 1.8 3.4H449s2 6 3.6 9 7.5 5.2 11.3 1.2c6.7-7 2.4-11.3 7.7-13 5.3-1.5 15.6-2.7 27.6-4 12-1.5 21.5-3 21.5-3-8.5 3.4-29.8 7-35.1 8.6s-6.6.3-12 8.1c-5.3 7.9-12.4 9.5-15.8 7.5a13 13 0 0 1-3.6-3.5" style="fill:#fff;fill-opacity:1"/><path fill="#ff3515" d="m602.3 250.4-.7 7.6c-.3 3 .3 4.3-.4 3.4-.5-.8-.9-3.7-1-2.8q0 1.3-1.4 3.5c-.4.6.4-2.7 0-2-.8 1.4-1.5 1.5-2 3-.4 1-.6-1.8-.8-2.7-.1-1.1-1 1.4-1.7 2.7-.2.6-.3-2.3-.3-3 0-.4-1 2.8-1 1.8 0-1.4.4-2.8 0-2.2-.7.8-.5 1-1.2 1.9-.4.4-.3-1.1-.6-2-.3-.7-.9 3.4-1 2.5-.2-1.2.5-4.5 0-3.5-.6 1.1-.9 3.9-1.3 2.9s-.2-2.2-.5-3.2c-.1-.7-1.4 2.5-1.3 1.7 0-3.3 1-12.8 1-12.8l5 2.8c1.6 1 3 3 4.7 3s2.4-.4 3.4-1q.9-.5 1.1-1.6z" style="fill:#ff3515;fill-opacity:1;stroke:#000;stroke-width:.3;stroke-dasharray:none;stroke-opacity:1"/><path fill="#ff3515" d="m330 131 1-.1a9 9 0 0 1 2.8-.4l1.7.4 1 .3s-1.2 0-2 .4q-1 .6-2 0c-.7-.3-2.5-.6-2.5-.6" style="fill:#000;fill-opacity:1"/><path d="m378.3 361.9 2-.7c1 0 3.3-1.4 4.5-3.2 1.1-1.9.4-3.3.3-4.9q.1-3-1.1-5.7-1.8-3.2-5-5.3a11 11 0 0 0-4.2-2.1l-1-.1-2.7.2-3.5 2.3s9.4 16.9 10.7 19.5z" style="fill:#ff3515;fill-opacity:1;stroke:#000;stroke-width:.3;stroke-dasharray:none;stroke-opacity:1"/><path fill="#d18644" d="M339.2 121.6c1.3.8-4.3-.6-4.4.7 0 1.2.5 3 .8 4s.4 2.3-1.1 2.2-2.9.4-2.6-.5c.4-1 .5-.8.5-.8s-.3.7.2.8l1.3.1q1 .2 1.4-.7c.1-.7 0-1.1-.5-2.5q-.8-2.1-.2-3.2.5-1 2.4-1 1.8.4 2.2.9m-7 1.6q.4-1.6-1.2-2.3-1.8-.6-3.7.8l1.9-.1q2-.3 2.5.5c.3.3.5 1.1.5 1.1m-.3 9.5c-.7-.5 1.8.2 2.4.2q-1.5.6-2.4-.3" style="fill:#000;fill-opacity:1"/><path fill="#bbbcbc" d="M579.8 212.6c-5.7 0-10.4-3.3-10.4-7a292 292 0 0 1 20.6-.2c0 4-4.5 7.2-10.2 7.2z" style="stroke:#000;stroke-width:.3;stroke-dasharray:none;stroke-opacity:1;stroke-linejoin:bevel"/><path fill="#bbbcbc" d="M633.8 212.6c-5.7 0-10.4-3.3-10.4-7l10.2-.2H644c0 4-4.5 7.2-10.2 7.2z" style="stroke:#000;stroke-width:.3;stroke-dasharray:none;stroke-opacity:1;stroke-linejoin:bevel;stroke-linecap:round"/><path fill="#bbbcbc" d="M634.7 172.1v-1.4l-25.3-1.7-2.3.2-1.9-.2s-24.7 1.5-25.3 1.7v1.4l27.4-.7z" style="stroke:#000;stroke-width:.3;stroke-dasharray:none;stroke-opacity:1"/><path fill="#61619e" d="m363 183.2 3.7-12c-1-2-2.5-4.9-5.3-4.8-5.4.2-6.2 7.2-6.6 15.1-.3 8-.2 13.3-.2 13.3l1.8 4.2c.8 2 1.7 2.2 2.5-.3.9-2.4 4-15.5 4-15.5" style="stroke:#000;stroke-width:.3;stroke-dasharray:none;stroke-opacity:1"/><path fill="#0077c8" d="M306.3 214.7c-1 8 0 16 .4 21.2-3.8 14.5 2.8 22.2 3.8 34.5.6 7.4-2.6 10.6 1 22.2.4 1-1.3 4-1.4 6 0 3 2.5 4.3 1.4 8.9-1 4.4 1 6.7 1.3 10 .6 6.8 4 8.7 1.5 20.4 3.5-1.4 10 3.8 16.6 6.6s15.6.3 19.7-1.7c4.2-2.2 10.7 1.8 10.7 1.8l-1-2.5c-1.7-5.2-4.8-9-4.8-9s-2.8-28.8-1.8-38.1 2.1-9.7 2.1-9.7-1.7-4.2-2-10.8c-.4-6.5 1.3-13.8 2.4-19s-.4-8.3-.4-8.3l-1.4-.3c-2.4-.7-9.2-45.9-9.2-45.9s-9 1-13.4 1.2c-4.4.3-1.8-1.4-6.7-3.7-4.8-2.3-12.7-1.2-12.7-1.2-4.5 4.2-5 9.4-6 17.4Z" style="stroke:#000;stroke-width:.3;stroke-dasharray:none;stroke-opacity:1"/><path fill="#61619e" d="M311.1 189.5s.4.4 3.5.6 3.7-.5 5.7-.9c2.1-.3 4.4 0 6.6-.3 2.3-.3-1.2 1.2 2.8 1.6 4 .3 5.7.1 7.6.1s4.1 2 6.7-.8 3.8-2.6 3.5-6.1-2-6-2.8-7.6-.8-2 1-4c1.5-2.7 3.5-1.7 4.2-5.2.5-3.6-.2-4.2-.2-6.9 0-2 .6-9.3 1-5.9.3 3.5 2.2 3.8 1.8 8.7-.3 4.8-.5 4 1.6 2.2 2-1.7 6.2-4.6 3-.5a21 21 0 0 0-5.3 10.4c-.7 3.8-2 19.7-2 19.7l-11.3-.5-26.5-2z"/><path fill="#523178" d="M305 176.8c-1.2-1.5-3.1-2.4-4.7-3.5q2.4 3 2.5 6.6c.2 3.1.5 5.1.2 8.3-.3 3.8.2 7.1.4 2.4l.4-12.2c0-.6.8-1 1.1-1.6m19.8-4.9-1.2 12.3s0 3.1.6.4l4.5-22.5c.4-1.8 0-2.6-.3-1.2s-.7 7.2-3.4 9c-2.6 1.7-8.6.3-9.4-.2s-1.2.2 0 .8c3 1.5 6.6 2.3 9.2 1.4m9-10.8 1.7 14.1c.4 3.5 1.1 4.7.9.7s-1.2-5.5 1.4-5c3.4.7 6.5 1.7 9.4.4 2-1 3.8-3 4-5.3.2-1.3-1-6.9-1.7-3.6s-1.7 5.4-3.9 6.9a8 8 0 0 1-6.3.9c-1.9-.5-3.3 1.2-3.5-.3l-1.2-8.2c-.1-1.3-1-2.4-.8-.7"/><path fill="#9bd9f4" d="M344.5 148.1s-.3 3.4-1 8-2.6 3.9-5.7 4c-1.4.1-7.6.1-12.4.4-3.1.2-3-.5-4.5-4.3a85 85 0 0 1-3.1-11.3l4.4-2s3 8.8 3.9 10.5c.8 1.8 0 1.6 3.4 1.4 3.5-.2 4.8 0 7 0 1.4 0 1.6.4 2.2-2.8.9-4.1 1-7.9 1-7.9 1.2 1.7 2.8 3.3 4.8 4z" style="stroke:#000;stroke-width:.3;stroke-dasharray:none;stroke-opacity:1"/><path fill="#523178" d="M315.3 196.9c-1.5 4.5-1.5 5.1-1.9 7.2q-.3 3.2 1.4-.3c1-2.4 3.1-6 3.6-6.6zm8.6 1.7c2.3 2.4 5.6 2.6 6.5 5.7.8 3.1 1.1 8 2 4.3.9-3.6 2.6-4.8 4.3-5 1.8-.2 3.8-.9 4.1 3.7.4 4.5.9 3.8.2 12.2-.7 8.5-1.7 19.6-.7 16.1q1.4-5.2 2.3-14.7c.7-6.2.7-5.9 1.2-5l1.4 2.6v-17.1s-18.2-3.1-21.1-3.3c-.4-.2-.9-.2-.2.5m-17.6 40.3c1-4.8 1.9-3.4 1.4.7-.4 4.2 1.6 16.4 2.1 20.6.5 4.1.6 6-.6 2a50 50 0 0 1-2.9-23.3"/><path fill="#523178" d="M330.5 229.5c-1 11.3-1.7 1.1-.5 12.7s3 14.7.7 26a141 141 0 0 0-2.6 28.6c0 7.2 1 15 1.9 4.2 1-10.8 3.4-28.8 3-36-.5-7.1.9-17.1 1.1-25.2s1.2-15.4 1-22.3c-.3-7-1.9-4.7-2.8-1.9-1 2.8-1.9 13.9-1.9 13.9m14.6-1-3.7 26.8c-1.4 10.4-4.2 19.4-5.3 29-1.2 9.8-1 17.4 0 9 1-8.2 3-15.8 5-26.7 2.1-10.8 4-22.9 4-22.9l.7-3.8v-12.5c-.3.2-.6-.2-.7 1.1m-14.1-65.2c-.7 7.2-.3 13.5-1 19.4s1 6.5 1.2-.5l.3-18.2c0-2.6-.2-3.7-.5-.7"/><path fill="#fff" d="M390 353.5q.9 0 1-1-.1-.9-1-1a1 1 0 0 0-1 1q0 1 1 1m.8 2q1-.1 1-1t-1-1c-1 0-1 .5-1 1q.1.9 1 1m.4 2.2q.9-.1 1-1-.1-1-1-1a1 1 0 1 0 0 2m-.3 2.2q.9-.1 1-1-.1-.9-1-1c-1 0-1 .5-1 1q0 .9 1 1m-.7 2q.9 0 1-1a1 1 0 1 0-1 1" style="stroke:#000;stroke-width:.3;stroke-dasharray:none;stroke-opacity:1"/><path d="M442.8 46c1.7 1-.6.3-2.3 0-1.7 0-1.7-.6-1.7-.6 2 0 2.3-.2 4 .7" style="fill:#000;fill-opacity:1;stroke:none;stroke-width:.77469;stroke-opacity:1"/><path fill="#61619e" d="M309.8 176.8s.7 1.7 1.7 2.6c1 .8 3.1.5 2 2.2-1.3 1.8-1.4 5.6-1.6 6.8s-.9.7-.9.7c0-1.3-.2-3.1 0-4.4.3-1.6 1-2.6.7-3.7q-1.8-1.5-1.7-3.5z" style="display:inline"/><path d="M497.2 151q1-1.3 1.4-2.8H491c1.8 1.2 5.4 3.8 6 2.9m-169.3-27.7c.8-.2 1.4-1.1 2-.6l1.1.7-1.1.6c-.7.3-.6 0-1-.2zm7.9.1c.8-.2 1.3-1.1 2-.6l1 .7-1 .6c-.8.3-.7 0-1.1-.2zM287 101.3s-1.8.6-3.4.7-2.7.8-1.2 1.2c1.5.5 3.2 1.7 3.2 1.4l-.4-2zm-1.8 10.5 1.5-.5-.3-1.5q-2.7 2.2-1.2 2m-5.4 0c1.1.3 2.5 0 2.5 0s-.2-.6-1.3-1c-1-.5-1.9-1.3-2-.4.2.8.8 1.4.8 1.4m3.6 6.7 2.6-2s.7-1.3-1.1.1-2.8 1.6-3.7 1.9l-1.6.3s.8.6.3 1.8 1.7-.9 3.5-2.1m3 3v.3s.3-.2 0-.3m106 270.2a6 6 0 0 0-4.9-5.8q-1.8-.6-2 1l-.9 3c2 .5 3.8.5 4.9-1.4l-1.5 6c0-2.1-1.5-3-3.6-3.6l-1.4 6q-.6 1.4 1.4 1.8c2.9.7 6-.5 7.4-3.1l-1.5 5.6-13.6-3.4h-.1c1.6.4 2.7-1.7 3-2.8l2.3-9.2c.2-1 0-2.3-1.6-2.7l13.3 3.2zm9 11.9.1-.9c1.5.3 1.8.2 1.9-.2q0-.5-.3-1.2l-1.3-3.6-2.8 2.7-.6 1q-.1.6 1.8 1l-.1 1-6.2-1.2c1.2 0 2.6-1.1 3.5-2l4-3.7-2.3-6.2c-.4-.9-.7-2.9-2-3l7.5 1.4c-1.4-.2-1.8.7-1.9 1.2l.2 1 1 3.1 2.5-2.4q.5-.4.6-.9c0-.4-.2-1.6-1.3-1.8l5.9 1.1h-.1c-1.7-.2-2.5 1-3.8 2.2l-3.2 3 2.7 7.3c.3.8.7 2.2 2 2.6h-.1zm25.8-6q-1.3-4.9-5.1-5.4c-2.8-.4-4.3 2-4.8 6.3q-.9 6.8 3.6 7.3c3 .4 5.4-1.2 6-4.5l.4.1c-.5 3.8-3 5.9-7 5.4-5.2-.7-7.6-4.6-7-8.8a8 8 0 0 1 8.6-6.9q2.5.4 4.2 1.8l1.9-.6zm17.2 1c-.6-2.9-3.3-4.6-6-4.7q-1.9-.2-1.8 1.2l-.1 3.3c2.1.1 3.8-.4 4.5-2.4l-.4 6.2q-.8-2.8-4.2-2.8l-.3 6.1q-.1 1.5 1.7 1.5c3 .2 6-1.6 6.8-4.4l-.5 5.8-14-.7c1.6 0 2.2-1.2 2.3-2.3l.5-10.5c0-1-.4-2.4-2-2.5l13.6.7zm3.8 9.8c1.6 0 2-1.3 2-2.4l-.2-10.5c0-1.1-.5-2.3-2.2-2.3l8-.2c-1.6 0-2.1 1.3-2.1 2.4l.3 10.5q0 1.4 1.5 1.3c2.3 0 4.9-2.4 5.4-5v5.9zm16.2-6.4c.9 2.3 3.6 4.7 6.4 4.4 1.4-.1 2.7-1 2.5-2.8-.3-3.2-8.7-1.2-9.3-6.3-.3-3.1 1.9-5.2 4.7-5.5 2.4-.2 3.3.9 3.9.8.4 0 1.5-.6 1.7-1l.5 5.2c-.9-2.3-3.4-4.2-5.7-4-1.4.2-2.5 1-2.3 2.5.3 3.4 8.8.9 9.4 6.6.3 3.3-2.5 5.3-5 5.5-2.6.3-3.8-.7-4.5-.7-.4.1-1.5.8-1.6 1l-.1.1zm16 4c1.6-.2 2-1.5 1.8-2.6l-1.7-10.4c-.2-1.1-1-2.2-2.6-2l8-1.3c-1.6.3-2 1.6-1.8 2.7l1.7 10.4c.2 1 1 2.2 2.5 2zm15.5-18.7a8 8 0 0 1 9.4 5.9 8 8 0 0 1-5.8 9.5 8 8 0 0 1-9.3-6 8 8 0 0 1 5.7-9.4m3.4 14.4q3.6-1.1 2-7.6c-1-4-2.6-6.4-5.1-5.8q-3.7 1-2 7.5c1 4.1 2.5 6.5 5 5.9m23.5-5.6-1.3.5q-3.1 1-4.3-2.7c-1-2.5-1.2-3.2-3.6-2.8l1.3 4.4c.4 1.3 1.1 2.5 2.9 2l-7.5 2.3c1.6-.5 1.7-1.8 1.3-2.9l-3-10c-.4-1.1-1.2-2.1-2.8-1.7l7.4-2.3q5.5-1.5 6.6 2.3c.9 2.7-1.7 4.3-4 5v.1c2.7-.5 3.7.7 4.6 2 1.3 2 1.6 2.8 2.1 2.6 2.1-.6 2.4.5.4 1.2zm-9.5-5.8c2.3-.8 3.6-1.6 2.9-4q-.9-2.8-3.3-2.2-1.2.3-1 1.6z"/><path fill="none" stroke="#000" stroke-linecap="round" stroke-width="1.2" d="M370 249.1c0 3.2 7.7 1.1 7.7 4.4m-2.5-12.8c-2.1 2.3 4.9 6 2.8 8.3m-.2-11.9c-1.8 2.7 5.8 5.2 4 7.9m-2-11.7c-1.3 2.8 6.5 4.1 5.2 7m-3.9-11.2c-.8 3 7.1 3 6.3 6.1m-5.6-10.4c-.3 3.1 7.5 1.9 7.2 5m-7.2-9.4c.1 3.2 7.7.7 7.9 3.9M381 216c.7 3.1 7.8-.6 8.5 2.6m-9.8-6.8c1.1 3 7.5-1.7 8.7 1.3m-10.8-5.1c1.6 2.7 7.2-3 8.8-.2m-11.4-3.3c2 2.4 6.6-4 8.6-1.6m-11.8-1.4c2.4 2 5.9-5 8.3-3m1-9.7c-3 1.3 2 7.5-1 8.8m5-10.8c-2.8 1.5 2.7 7.2 0 8.8m3.8-11.3c-2.6 1.8 3.5 6.9.9 8.7m2.5-11.6c-2.4 2.1 4.3 6.5 1.9 8.6m1.2-11.8c-2.1 2.3 5 6 2.8 8.3m0-11.9c-1.9 2.6 5.6 5.4 3.7 8m-1.3-11.8c-1.6 2.8 6 4.8 4.5 7.6m-2-13c-2 2.6 6.1 5.7 4.2 8.2m-36.7 71.6c-.3 3.1 7.5 1.9 7.2 5M370 253c0 3.2 7.7 1.2 7.7 4.3m33.2-84.3c3.2 0 1-7.7 4.3-7.7m1 7.7c3.2 0 1.1-7.7 4.3-7.7m1 7.7c3.2 0 1.1-7.7 4.3-7.7m1 7.7c3.2 0 1.1-7.7 4.3-7.7m1 7.7c3.2 0 1.1-7.7 4.3-7.7m1 7.7c3.2 0 1.1-7.7 4.3-7.7m1 7.7c3.2 0 1.1-7.7 4.3-7.7m1 7.7c3.2 0 1.1-7.7 4.3-7.7m1 7.7c3.2 0 1.1-7.7 4.3-7.7m1 7.7c3.2 0 1.2-7.7 4.4-7.7m1 7.7c3.2 0 1-7.7 4.3-7.7m1 7.7c3.2 0 1-7.7 4.3-7.7m1 7.7c3.2 0 1-7.7 4.3-7.7m1 7.7c3.2 0 1-7.7 4.3-7.7m1 7.7c3.2 0 1.1-7.7 4.3-7.7m1 7.7c3.2 0 1.1-7.7 4.3-7.7M370 257.8c0 3.2 7.7 1.1 7.7 4.3m-7.7.4c0 3.2 7.7 1 7.7 4.3m-7.7.3c0 3.2 7.7 1.2 7.7 4.4m-7.7.3c0 3.2 7.7 1.1 7.7 4.3m-7.7.4c0 3.2 7.7 1 7.7 4.3m-7.7.4c0 3.2 7.7 1 7.7 4.3m-7.7.3c0 3.2 7.7 1.2 7.7 4.4m-7.7.3c0 3.2 7.7 1.1 7.7 4.3m-7.7.4c0 3.2 7.7 1 7.7 4.3m-7.7.4c0 3.1 7.7 1 7.7 4.3m-7.7.3c0 3.2 7.7 1.1 7.7 4.3m-7.7.4c0 3.2 7.7 1.1 7.7 4.3m-7.3 1c0 3.2 7.4 1 7.4 4.3m-2.1 10.6c2.7 1.7 4.8-6 7.5-4.4m-3 7c2.7 1.7 4.8-6 7.5-4.4m-3 7c2.7 1.6 4.8-6 7.5-4.4m-3 7c2.7 1.6 4.8-6 7.5-4.4m-3 7c2.7 1.6 4.8-6 7.5-4.5m-3 7.1c2.7 1.6 4.8-6 7.5-4.5m-3 7.1c2.7 1.6 4.8-6 7.5-4.5m-3 7.1c2.7 1.6 4.7-6 7.5-4.5m-3 7.1c2.7 1.6 4.7-6 7.5-4.4m-3 7c2.7 1.6 4.7-6 7.5-4.5m-3 7.1c2.7 1.6 4.7-6 7.5-4.5m-3 7.1c2.7 1.6 4.7-6 7.5-4.5m-3 7.1c2.7 1.6 4.7-6 7.5-4.5m-3 7.1c2.7 1.6 4.7-6 7.5-4.5m-3.1 7c2.8 1.7 4.8-6 7.6-4.4m-3.8 6.6c2.8 1.6 4.8-6 7.6-4.5m-80-43.2c1.1 3 7.2-1.2 8.3 1.8m-6.8 3.6c2.2 2.3 6.2-4.6 8.4-2.4m-.4-126c-1-1.8-3.4-2-5.3-1.8-2 .2-3.2-.5-3.2-.5m37.8-22c1.5-.9-.8-6.5.2-7.2"/><path fill="none" stroke="#000" stroke-width=".7" d="m402.6 297.8-4.5-.7 8.8-9.8m25.6 4.5c.2 2.4-.5 3.2-1 4.8l-1.6 1.7m6.4-6 2.8 3.4-4.5 2m-17.5-24v4.1m-.4 3.1v1.3m0 6.6-.3 2.4m0 4.5v3m-7.5-16.9v-4.5m.2 10.2v2.7m18.4-6.1v1m-.2 4.7v2m0 5v1.7m1.5-1.9 1 1.7m-9.4-3.3-2 3.7m3.9-8.4-5.4 8.4m3.8-10.6-1.7 3.3m3 5.3-1.5 2m-11.5-3-.1 3m18.7-17.2v-3.1l6 9.3m43.2 16-10-4m11.7 3.5v-23.7m.7 23.1 14.3-2.7m-18-14 3-5.5m.3 5.5 7.2-3.6m13.9-23.2s5.7 4.7 9 6.6 11.2 3.7 11.2 3.7m-84-119.7a10 10 0 0 0-7.4-3.1c-1.9 0-3.5 1.4-5.8 2.1l1 1c2.2 2 2.4 5.8 6.5 6.6h-.4c3.7.7 12.7 0 12.7 0-4.1-.8-4.3-4.5-6.6-6.6zm-18 6.6h-.4c3.7.7 12.7 0 12.7 0-4.1-.8-4.3-4.5-6.6-6.6a10 10 0 0 0-7.4-3.1q-5.2 0-4.8 5.1c.3 3.3 2.9 4.6 6.2 4.6m30.6-6.6a10 10 0 0 0-7.4-3.1c-1.9 0-3.6 1.4-5.9 2.1l1 1c2.3 2 2.5 5.8 6.6 6.6h-.4c3.7.7 12.7 0 12.7 0-4.2-.8-4.3-4.5-6.6-6.6zm12.3 0a10 10 0 0 0-7.4-3.1c-2 0-3.6 1.4-5.9 2.1l1 1c2.3 2 2.5 5.8 6.6 6.6h-.4c3.7.7 12.7 0 12.7 0-4.2-.8-4.3-4.5-6.6-6.6zm12.3 0a10 10 0 0 0-7.4-3.1c-2 0-3.6 1.4-5.9 2.1l1 1c2.3 2 2.5 5.8 6.6 6.6h-.4c3.7.7 12.7 0 12.7 0-4.2-.8-4.4-4.5-6.6-6.6zm4.9-3.1c-2 0-3.6 1.4-5.9 2.1l1 1c2.2 2 2.4 5.8 6.6 6.6h-.4c4.7.4 8.2 1 8.2-3s-4.5-6.4-9.5-6.7zm-.8-.2q4.5-7 4.6-15.7a30 30 0 0 0-17.7-27m-5.1-1.6a34 34 0 0 0-10.7-.5m-2.6.5a29.2 29.2 0 0 0-18.1 44.4" style="stroke-width:.3;stroke-dasharray:none"/><path d="m636.1 205.3-1.6-33.2-11.1 33.4m20.6-.1-9.5-33.3" style="fill:none;stroke:#000;stroke-width:.3;stroke-linecap:round;stroke-dasharray:none;stroke-opacity:1;stroke-linejoin:bevel"/><path d="M623.4 205.5s7 1.1 10.2 1.1a88 88 0 0 0 10.4-1.2" style="fill:none;stroke:#000;stroke-width:.3;stroke-dasharray:none;stroke-opacity:1"/><path d="M569.4 205.5s7 1.1 10.2 1.1c3.3 0 10.4-1.2 10.4-1.2" style="fill:none;stroke:#000;stroke-width:.3;stroke-dasharray:none;stroke-opacity:1;stroke-linejoin:bevel"/><path fill="#ffd100" d="m488.8 148.1 14.3.1c2.8.1 2.8-2.5 0-2.5h-14.4c-2.7 0-3.9 2.3.1 2.4" style="stroke:#000;stroke-width:.3;stroke-dasharray:none;stroke-opacity:1"/><path fill="none" d="M339.5 132.5c-.9 2.4-2.8 4.8-6 5a6 6 0 0 1-3.5-1l-2.6-2h-.1l.7.8q.6.7 1.8 1.5 1.6 1 3.7 1c3.4-.3 5.4-2.7 6.3-5.2z" style="fill:#000;fill-rule:nonzero;stroke:none;stroke-width:.3;stroke-linecap:square;stroke-dasharray:none"/><path d="M333 154.7c2 .1 1.7.6 2 2.9s-.3 2.8-1 2.6" style="stroke-width:.3;stroke-dasharray:none;fill:none;stroke:#000;stroke-opacity:1"/><path d="M328.7 160.2q-.9.2-.6-2.2v-1.4l-.3 1.4q-.4 2.6 1 2.5z" style="fill:#000;fill-rule:nonzero;stroke:none;stroke-width:.3;stroke-dasharray:none;stroke-opacity:1"/><path d="M286.2 303.3s8.7 2.8 6 7.3c-2.8 4.5-6.9 8.2-5.8 12m-2.6-46s5 2.4 9.4 4.2 4.8 2.8 1.4 5.9c-3.5 3-11.7 11.4-11.8 14m14-17.2s-1.5-13 1.6-30.6m13.8-60.8s-2.3-3-1-8.6c.7-2.4 1-2.3-.4-3.4s-1.1-7-1.1-7-1.2 1.7-1.6 4l-4.3 15.7c-2 6.7-6.1 12.2-8 5.4m4.7-16.5c.2 8 1.5 16-.8 18.9" style="stroke-width:.3;stroke-dasharray:none;fill:none;stroke:#000;stroke-opacity:1"/><path fill="#523178" d="M346.8 246.8c-.4 9.9.7 9-2.8 24-3.4 15-4.1 16.1-5.5 26.7-1.4 10.7-1.6 4-2.7 14.6s-3.3 11.3.6 15.2c4 4 8.4 5 8.4 5s-3-2.2-4.9-4.8q-2.9-4-2.8-6.2c.3-1.4 2.8-.2 2.8-.2s-1.8-1-1.6-4.9 2.8-4.4 2.8-4.4-.3-6.6.9-15.2 1-15.2 3-18.9 4-7.6 4.4.5 1.6 25.3 1.6 34.4.7 16.1 2.5 19.6c1.9 3.4 4.9 5.5 4.9 5.5s0-88.9-1.2-90.8c-.2-3.2-10.4-.1-10.4-.1"/><path d="M588.8 349.6c-.5-1-.7-1.1-1.2-1.3z" class="UnoptimicedTransforms" style="fill:#000"/><path d="m589 349.6-.5-.9c-.4-.4-1-.4-1-.4l.7.6.5.8z" class="UnoptimicedTransforms" style="fill:#000;fill-rule:nonzero;stroke:none;stroke-width:.3;stroke-dasharray:none;stroke-opacity:1"/><path d="m589 349.6-.8-1q-.7-.6-.9-.6-.1.2.7.9l.7.8z" class="UnoptimicedTransforms" style="fill:#000;fill-rule:nonzero;stroke:none;stroke-width:.3;stroke-dasharray:none;stroke-opacity:1" transform="rotate(76.4 563.2 319)"/><path d="m588.7 349.5-.4-.8q-.5-.5-.7-.4c-.2 0 .3.3.5.5l.3.8z" class="UnoptimicedTransforms" style="fill:#000;fill-rule:nonzero;stroke:none;stroke-width:.3;stroke-dasharray:none;stroke-opacity:1" transform="translate(-1.1 .2)"/><path d="m588.8 349.5-.4-.8q-.6-.5-.8-.4c-.2 0 .3.3.5.6l.4.7z" class="UnoptimicedTransforms" style="fill:#000;fill-rule:nonzero;stroke:none;stroke-width:.3;stroke-dasharray:none;stroke-opacity:1" transform="translate(-2.4 .4)"/><path d="m588.8 349.6-.4-.8q-.6-.6-.8-.5c-.2 0 .3.3.5.6l.5.8z" class="UnoptimicedTransforms" style="fill:#000;fill-rule:nonzero;stroke:none;stroke-width:.3;stroke-dasharray:none;stroke-opacity:1" transform="translate(-4 .5)"/><path d="m377.7 349.2 4.4-2.4-1.7-2.3 1-3.1 2.6 4.7 3-2.2 1.8 3.1-3.4.6 3.4 5.6-4-2-1-2.4-8 4-1.2-2z" style="fill:#f2a900;fill-opacity:1;fill-rule:evenodd;stroke:#000;stroke-width:.3;stroke-linejoin:bevel;stroke-miterlimit:6.3;stroke-dasharray:none;stroke-opacity:1"/><path fill="#ff3515" d="M363.4 325.5c-1-10.8-.6-26.7-1-39.9-.3-13.1 1-34.2 2.4-50.1 1.4-16-.9-56-.9-56l-1 4s-2.6 11.1-4.1 15.3c-1.6 4.1-3.3-1.2-4.5-6.3s-2.8-9.8-3.5-21c-.9 5.1-1.6 20-1.6 20l-3.5 48.4s-1.6 6 .8 6.6c2.4.7 3.1 1.5 4.2.8 1-.7 1.8-1 3.7-.4l1.5.3c.1 1 1.4 3.1.3 8.3s-2.8 12.5-2.4 19 2 7.2 2 10.8c0 3.3-1.4 3.4-2 9.7-1 9.3 1.5 37.7 1.7 38 .2.5 3.1 3.9 4.8 9l1.5 5.2c.2 0 6-4.9 8.4-9.4 0 0-5.7-1.6-6.7-12.4" style="stroke:#000;stroke-width:.3;stroke-linecap:square;stroke-miterlimit:15;stroke-dasharray:none;stroke-opacity:1"/><path fill="#523178" d="M343.1 335.9c-6.2-2.8-9.9-4.9-12.7-10.2s-3.2-7-3.9-16-2.5-22.8-2-14.5-.7 20.6-.3 29.6c.5 9 4.4 8.7.2 8.7-4.1 0-9-.2-.2 2.1s3.2 7.2 9.7 4.6c6.5-2.5 1.6-5 9.2-4.3"/><path fill="#ff3515" d="M363.8 353.1c1.4 3.7 3.3 7.5 5.5 10.4.6.8 2.3 3.4 2.6.9a39 39 0 0 0-7.9-20.2c-1.1-.8-2 .6-1.4 3.4.2 1.3.5 3.6 1.2 5.5z" style="stroke:#000;stroke-width:.3;stroke-dasharray:none;stroke-opacity:1;fill:#200400;fill-opacity:1"/><path fill="#523178" d="m312.7 289.2 5-10.1s.5-2.3.7-5.3c.3-3-1.3-2.1-3-1s-3-1.1-3.4 4.4c-.5 5.6.2 8.1.7 12"/><path fill="#ffd9ee" d="M353 346.8s5.1 4.9 5.7 4.9h3.5c.8.2 1.5-.3 1.5-.3s.7 0 1.4-.5c1-1 1.5-.9-.1-2.1s-3.5-3.7-3.5-3.7c-.1-.1-4-2.2-4.9-2.5-3-1-5-.4-7.5.8z" style="stroke:#000;stroke-width:.3;stroke-dasharray:none;stroke-opacity:1"/><path fill="#523178" d="M322.4 276c4.6-10.3 6.4-15.6 6-21.2s.2-11-.5-7.6-3 11.6-2 5.6.9-9 1.8-9 1.6 0 1.6 6.6c0 6.7 1.1 10.7-1.6 21.8-2.8 11-3.5 16.1-3.5 16.1s.2-4.8-1.1-7.1c-1.4-2.4-2.1-2.4-.7-5.1"/><path fill="#f2a900" d="M312.2 192s2.8.3 6-.6c3.2-1 4.6-1.8 8.8 0 4.1 1.8 9.4 2.8 13.3 2.8s1.9 1.1 5.1-1.2 7-1.2 4.9 2.5c3 2.8 2.6 4 .6 5.4 0 0 7.9 31.3 7.9 37-7.6-.1-13.2 2-13.2 2l-.4-38.7-13.4 1c-4.4.3-1.9-1.4-6.7-3.7s-12.7-1.2-12.7-1.2 1-1.3-.2-5.2" style="display:inline;stroke:#000;stroke-width:.3;stroke-dasharray:none;stroke-opacity:1"/><path fill="none" stroke="#000" stroke-width=".7" d="M379 343.2c.4-2 .5-4.2-2.2-5l-1.8-.5c-1.5-.4-2.3-.6-2.9.6-.8 1.5-2.5 4-2.5 4l1.4 2.8 1-.7-.5-.8 1.2-.7.5.7.5-.4 1 1.3-.6.4.7.7-1 1-.6-.6-1.2.8 1.8 2.4s4.6-3.9 5.1-6zm-15.8.8s2 2.2 2.7 3.5q3 5.2 4.7 11c.6 2.2 1.1 6.7 1.1 6.7s1.8-1.2 5.5-1.5 4.4 0 7-.1c1.3 0 2.8.3 4-1.5 1-1.5 3.6-6.7.2-9.6q-.7-.7-1.5-1c-3.7-1-8.4-1-11.4.4l-.4-.8a16 16 0 0 0 5.1-4.9l.8-1.5q.5-1 .7-2.1c.2-2-.7-4.5-2.3-5.6q-2.7-2.1-5.6-1.8c-1.5.1-3.1 1-4 2.2zm21.5 9.3c2 .8 3.8 2 2.8 4.6s-1.2 4-2.8 3.8c-1.7-.3-4.8-.4-4.8-.4l-1.2-2.7 1-.4.3.7 1.3-.4-.3-1 .6-.2-.4-1.4-.7.2-.4-.9-1.3.4.3.7-1.4.4-.9-2.9s6-1.4 8-.5z" style="display:inline;fill:#f2a900;fill-opacity:1;fill-rule:evenodd;stroke-width:.3;stroke-dasharray:none"/><path fill="#d18644" d="M358.4 352.3c4.7.9 7.5 0 7.5-.2 0-.6 0-1.5-.3-1.6l-.9-.2c-.2 0-.2.5-.4.6s-1-.3-1.1-.2c-.5.2 0 .6-.7.7l-1-.3c-.5 0-.7.5-1.2.5s-.7-.4-1-.4c-.5 0-1 .1-1.8-.7l-3.8-4c0-.2 0-1.2 1.6-1.3q2.2 0 4 1c1.7 1 1.3 1 1-.8 0-.5 1.5.1 1.5.1l-1-1.2q-1.6-.8-3.6-1.5s-4.1 0-4.8 2.7c-.2 0-2.1-1.3-3.3-2l-1.4.5s5.8 7.3 10.7 8.3z" style="stroke:#000;stroke-width:.3;stroke-linecap:square;stroke-linejoin:miter;stroke-miterlimit:15;stroke-dasharray:none;stroke-opacity:1"/><g aria-label="E PLURIBUS UNUM" style="font-style:normal;font-variant:normal;font-weight:700;font-stretch:normal;font-size:16.6667px;line-height:1.25;font-family:&quot;Times New Roman&quot;;-inkscape-font-specification:&quot;Times New Roman, Bold&quot;;font-variant-ligatures:normal;font-variant-caps:normal;font-variant-numeric:normal;font-variant-east-asian:normal"><path d="m380.4 409.2-1 4.3h.2q1 .4 1.6-.2.6-.5 1-1.7h.4l-1.5 5.7-.3-.1q.2-1 0-1.6-.1-.7-.5-1-.3-.3-1.1-.5l-.8 3-.2 1.1q0 .3.2.4l.6.3.7.2q1.5.4 2.6 0 1-.6 1.8-1.9l.3.1-1.4 3.3-9.2-2.4v-.3l.4.1q.5.1.8 0 .3 0 .4-.2t.4-1l1.8-7 .2-1q0-.3-.2-.5t-.8-.4h-.3v-.4l9 2.3-.8 3.2-.3-.1q0-1.2-.3-1.8t-1-1q-.3-.3-1.5-.6zm13.3 8.3-.6 3v1.2q0 .2.3.4t1 .3v.3l-5.6-1v-.3q.8.2 1 0 .4 0 .5-.2.2-.2.3-1.1l1.3-7v-1.2q0-.2-.3-.4t-1-.3v-.3l4.8.8q2.4.4 3.2 1.4 1 1 .7 2.3-.2 1-1 1.7t-2 .7zm.9-5.3-.8 4.7h.4q1 .3 1.6-.2t.8-1.7q.2-1.3-.2-2t-1.5-.7zm14.8 8.8-1 3.8-9.7-1.3v-.3h1.2l.4-.4.2-1 1-7.2v-1q0-.3-.3-.5t-.7-.2h-.4v-.4l6 .8-.1.3h-.5q-.5-.1-.8 0l-.4.4-.2 1-1 7v1q0 .3.4.4l1 .2.8.1h1.5q.6-.3 1.2-1 .5-.5 1-1.8zm1.5-7 5.7.5v.3h-1.3q-.2.1-.3.4l-.2 1.1-.5 5.4q-.2 1.5 0 2t.6.9 1.3.4 1.6-.3q.6-.3 1-1t.6-2.4l.4-4.5v-1l-.4-.5-1-.3v-.3l3.8.4v.3h-.2q-.5-.1-.8 0-.4.2-.5.6-.2.2-.2.9l-.4 4.2q-.2 1.9-.6 2.7t-1.4 1.5-2.7.5q-1.5-.2-2.2-.6-1-.7-1.4-1.5t-.2-2.2l.5-5.4v-1.2q0-.2-.3-.4t-1-.2zm15.3 7.3-.2 3.1v1.2q.1.2.4.3.2.2 1 .2v.3l-5.7-.3v-.3h1.1l.4-.4.2-1.1.4-7.2V416q-.1-.3-.4-.4-.2-.2-1-.2v-.3l5.1.3q2 .1 3 .5.9.3 1.4 1 .5.9.5 1.8-.1 1.3-1 2-.6.5-1.6.7l2.4 3.9.7 1q.3.2.7.2v.3l-3.5-.2-3.2-5.2zm.3-5.4-.3 4.9h.5l1.7-.1q.5-.2.9-.7.3-.5.4-1.4 0-1.3-.5-1.9t-1.8-.7zm13 10.8v.3l-5.7-.2v-.3h.4l.7-.1q.3-.1.4-.4l.1-1 .3-7.3v-1q-.1-.3-.4-.4t-.7-.2h-.4v-.3l5.8.2v.3h-.4l-.8.1q-.2.1-.3.4l-.2 1-.2 7.3v1l.4.4q.2.2.7.2zm8-5.4q1.5.4 2.1 1 1 .7 1 1.9-.1 1.2-1.1 2-1.3 1-3.6 1l-5.6-.1v-.3q.8 0 1-.2l.4-.3.1-1.2.1-7.1v-1.1l-.4-.4-1-.2v-.3l5.2.1q2 0 2.7.4.8.3 1.2 1 .5.7.5 1.4 0 .8-.6 1.5t-2 1m-3-.2q1.1 0 1.7-.3t.8-.7.3-1.2-.2-1.2-.8-.7-1.8-.3zm0 .6v3.5l-.1.4q0 .5.2.7t.7.2l1.2-.2q.5-.3.8-.9.3-.5.3-1.2 0-.8-.3-1.4t-1-.9-1.8-.2m6.8-5.5 5.7-.1v.3h-.3q-.7 0-1 .2l-.2.3-.1 1.2v5.4q.1 1.5.3 2 .3.5.8.8t1.3.3 1.5-.5 1-1.1.2-2.5V418q-.1-.7-.3-1t-.4-.5l-1-.1v-.3l3.8-.1v.3h-.2q-.5 0-.8.2t-.4.6l-.1 1v4.1q.1 2-.1 2.8-.3.9-1.3 1.6t-2.6.8q-1.5 0-2.3-.3-1-.5-1.5-1.4t-.5-2.1v-5.4q0-1-.2-1.2l-.4-.4h-1zm19-1 .3 3.8h-.3q-.4-1.4-1.3-2.2t-2-.7q-.9 0-1.4.5t-.4 1q0 .4.2.7.3.4.8.7l1.8.9q2 .8 2.7 1.6t.8 1.9q.1 1.4-1 2.4-1 1.1-2.6 1.2h-1l-1.2-.4-.6-.1-.5.2q-.2.1-.3.5h-.3l-.2-4.2h.3q.4 1.8 1.5 2.6 1 .9 2.2.8 1 0 1.4-.6.6-.5.5-1.1l-.2-.8-.7-.6-1.5-.8q-1.6-.7-2.3-1.2t-1-1-.5-1.4q0-1.4.9-2.3.9-1 2.3-1.1h1l1 .4.8.2.4-.2.1-.6zm5.4 0 5.6-.7v.3h-.2q-.7.1-.9.3t-.3.4v1.2l.7 5.3q.1 1.5.4 2t.8.7 1.4.1 1.4-.5.8-1.3q.3-.7 0-2.4l-.5-4.5q0-.7-.2-1t-.5-.4q-.4-.2-1-.1v-.3l3.7-.4v.3h-.1q-.5 0-.8.3t-.4.6v1l.5 4q.2 2 0 2.9 0 .9-1 1.7t-2.6 1q-1.4.2-2.2 0-1.2-.5-1.7-1.2-.5-.8-.7-2.2l-.6-5.3-.2-1.2-.4-.3h-1zm15.1-2.1 6.5 5.9-.8-4.7q-.2-1-.5-1.3-.5-.4-1.4-.2v-.3l3.5-.6.1.3q-.7.2-.9.4-.2.1-.3.5v1l1.6 9.2h-.3l-8.9-7.8 1.2 6.9q.2 1 .6 1.2l1 .2h.3v.2l-3.8.7v-.3q.9-.2 1.2-.6t.1-1.3l-1.3-7.7-.3-.2-.7-.5h-.8v-.3zm7.5-1.2 5.5-1.3.1.3h-.3l-.8.4-.3.4.2 1.2 1.2 5.2q.4 1.5.7 2 .3.3.9.5t1.3 0q.9-.2 1.4-.7t.7-1.3-.3-2.5l-1-4.3q-.1-.8-.4-1l-.4-.4h-1l-.2-.2 3.8-.9v.3h-.2l-.7.4q-.3.3-.3.7v.9l1 4q.5 2 .4 2.9t-.9 1.8-2.4 1.3q-1.4.3-2.3.1-1.1-.2-1.7-1t-1-2l-1.2-5.2-.3-1.1q-.2-.3-.5-.3h-1z" style="font-style:normal;font-variant:normal;font-weight:700;font-stretch:normal;font-size:16.6667px;font-family:&quot;Times New Roman&quot;;-inkscape-font-specification:&quot;Times New Roman, Bold&quot;;font-variant-ligatures:normal;font-variant-caps:normal;font-variant-numeric:normal;font-variant-east-asian:normal" transform="translate(.1 -6.2)"/><path d="m518.6 414.2.6-7.8 4.2-1.4.1.3h-.3q-.5.2-.7.5-.2.1-.2.4l.2 1 2.3 7q.2.8.4 1l.5.2.7-.1.3-.1.1.3-5.4 1.7-.1-.2.3-.2q.5-.1.7-.4.2-.1.2-.4l-.2-1-2.6-7.8-.9 10.9h-.2l-7.1-8.1 2.4 7.3.3 1q.2.3.6.5.5.1 1.2-.1v.3l-3.5 1.1-.1-.3h.1l.6-.3q.3-.2.4-.5v-.6l-.2-.8-2.2-6.7q-.2-.8-.4-1l-.4-.2-.8.1-.3.1-.1-.3 4.3-1.4z" style="font-style:normal;font-variant:normal;font-weight:700;font-stretch:normal;font-size:16.6667px;font-family:&quot;Times New Roman&quot;;-inkscape-font-specification:&quot;Times New Roman, Bold&quot;;font-variant-ligatures:normal;font-variant-caps:normal;font-variant-numeric:normal;font-variant-east-asian:normal" transform="translate(.1 -6.2)"/></g><path fill="#fff" d="M377.7 335.5q.9-.3.6-1.3a1 1 0 0 0-1.3-.5 1 1 0 0 0 .7 1.8m2.1.9q.8-.4.6-1.3a1 1 0 0 0-1.3-.5 1 1 0 0 0-.6 1.2q.4.8 1.3.6m1.6 1.5q.8-.4.5-1.3a1 1 0 1 0-1.8.7q.4.8 1.3.6m1 2q.9-.5.6-1.4a1 1 0 0 0-1.3-.5 1 1 0 1 0 .7 1.8m.6 2.2q.8-.4.6-1.3a1 1 0 0 0-1.3-.5 1 1 0 0 0-.5 1.2q.4.8 1.2.6m.1 2.1q.9-.4.5-1.2a1 1 0 1 0-.5 1.2m3.2 7q.9 0 1-1-.1-.9-1-1a1 1 0 0 0 0 2m-4.3-4.8q.9-.1 1-1-.1-.9-1-1a1 1 0 0 0 0 2m2 4.5q1 0 1-1t-1-1a1 1 0 0 0 0 2m-8.8-15.7q1 0 1-1t-1-1a1 1 0 0 0 0 2m5.6 13q1 0 1-1t-1-1a1 1 0 0 0 0 2m1 2.5q1 0 1-1t-1-1a1 1 0 0 0 0 2m-2-.5q1 0 1-1t-1-1a1 1 0 0 0 0 2m3.7-1.8q1 0 1-1t-1-1a1 1 0 0 0 0 2" style="stroke:#000;stroke-width:.3;stroke-dasharray:none;stroke-opacity:1"/><path fill="#fff" d="M388.4 352q.9-.1 1-1-.1-1-1-1a1 1 0 0 0 0 2" style="stroke:#000;stroke-opacity:1;stroke-width:.3;stroke-dasharray:none"/><path fill="#ffd9ee" d="M367.8 174.4c5.5-3.2 14-8 18.5-11.6 4.5-3.7 4-2.6 6.6-4.7 2.5-2 3.6-2.4 7.4-3.5 3.8-1 5.7-1.1 7.2-1.7q2.6-.8 3 .8v.7s2.3 1.6 3.3 2.5 2.3 3.1.2 1.7l-3.2-2.4c0-.1.4 2.7-.1 2.7s-1.4-2.9-1.4-2.9-.8 0-2.8 1c-1.9 1.1-5.3 1.3-5.3 1.3s-.6.5 1.2 1.4 3.4 1.8 2.8 2.5c-.8.7-.8.7-2.8-.1-2.1-.9-.7-.7-3-.5s-4.3-1.2-6 2-11.4 17.2-19.7 21.2c-2.8 1.1-3.2 1.9-6.3.7-3-1.3-8.7-3.4-9.1-6.4-.5-3.2.5-11.7 5.3-10.3 2.2.7 3.3 1.6 4.2 5.6z" style="stroke:#000;stroke-width:.3;stroke-linejoin:round;stroke-miterlimit:3.1;stroke-dasharray:none;stroke-opacity:1"/><path d="m410.5 154.6.7.3-.2-.2q0-.3-.4-.4l-1.7-.7q-1.1 0-1.9.3l-1 .5 1.1-.3q.8-.3 1.8-.2.6.1 1.6.7" style="fill:#000;fill-rule:nonzero;stroke:none;stroke-width:.3;stroke-linejoin:bevel;stroke-miterlimit:6.3;stroke-dasharray:none;stroke-opacity:1"/><path d="M410.8 156.2q-.6-.5-1.5-.2" style="fill:none;stroke:#000;stroke-width:.3;stroke-linejoin:bevel;stroke-miterlimit:6.3;stroke-dasharray:none;stroke-opacity:1"/><path d="M364.6 350.3h.2l-.4-.6c-.4-.5-1-.6-1-.6l.8.8z" style="fill:#000;fill-rule:nonzero;stroke:none;stroke-width:.3;stroke-linecap:square;stroke-linejoin:miter;stroke-miterlimit:4.6;stroke-dasharray:none;stroke-opacity:1"/><path d="M363 350.6h.2l-.4-.6q-.8-.7-1-.6l.8.8z" style="fill:#000;fill-rule:nonzero;stroke:none;stroke-width:.327772;stroke-linecap:square;stroke-linejoin:miter;stroke-miterlimit:4.6;stroke-dasharray:none;stroke-opacity:1"/><path d="M361.4 351h.1q0-.3-.4-.6l-1.1-.7.9 1 .3.4z" style="fill:#000;fill-rule:nonzero;stroke:none;stroke-width:.344473;stroke-linecap:square;stroke-linejoin:miter;stroke-miterlimit:4.6;stroke-dasharray:none;stroke-opacity:1"/><path d="M359.3 351.1h.2l-.3-.5q-.6-.5-.8-.5c-.2 0 .3.3.6.7z" style="fill:#000;fill-rule:nonzero;stroke:none;stroke-width:.244189;stroke-linecap:square;stroke-linejoin:miter;stroke-miterlimit:4.6;stroke-dasharray:none;stroke-opacity:1"/><path d="m311.9 345.8 1-.6c.4-.4.5-1 .5-1l-.7.7-1 .6z" style="fill:#000;fill-rule:nonzero;stroke:none;stroke-width:.3;stroke-linejoin:round;stroke-miterlimit:3.1;stroke-opacity:1"/><path d="m312.8 346.4.9-.6.4-.7-.6.5-.8.6zm1 .5.8-.6.4-.6-.6.4-.8.5zm1 .4.7-.6.6-.6-.7.4-.8.6z" style="fill:#000;fill-rule:nonzero;stroke:none;stroke-width:.244926;stroke-linejoin:round;stroke-miterlimit:3.1;stroke-opacity:1"/><path d="m358.8 238.1.2 3.6c0 1.2.3 2.4.1 3.6q0 1.2-.7 2.2-.6.4-1.6 0-.3-.2-1-.3m-10.6-46 5.7-.3" style="fill:none;stroke:#000;stroke-width:.3;stroke-linejoin:round;stroke-miterlimit:3.1;stroke-dasharray:none;stroke-opacity:1"/><path d="M292.4 139.6a4 4 0 0 0-1.8-.2l-1.7.5-.8.3.8-.1 1.7-.4 1.8.2z" style="fill:#000;fill-rule:nonzero;stroke:none;stroke-width:.3;stroke-linejoin:round;stroke-miterlimit:3.1;stroke-dasharray:none;stroke-opacity:1"/><path d="M292.5 141.6h-1.4c-1.4.2-2.4 1-2.4 1s1.2-.5 2.4-.7h1.4z" style="fill:#000;fill-rule:nonzero;stroke:none;stroke-width:.27011;stroke-linejoin:round;stroke-miterlimit:3.1;stroke-dasharray:none;stroke-opacity:1"/><path d="M292.6 143.7h-1.2c-1.1.2-2.1.8-2.1.8l2.1-.5h1.2z" style="fill:#000;fill-rule:nonzero;stroke:none;stroke-width:.281714;stroke-linejoin:round;stroke-miterlimit:3.1;stroke-dasharray:none;stroke-opacity:1"/><path fill="#523178" d="M309.8 175.2s2.4 1 1.6-3.8c-1-4.8-1.3-4.7-1-6.5.4-2 1-2.5 0-5.8-1.1-3.2-2.7.2-2.7.2s.5 2.2.2 5.4c-.3 3-.7 1.9-1 3-.4 1.3-.4 5-.9 8.7-.5 3.8-1 11.1-.5 9.2s.5-1.3.6-1.5l1.5-5.7c.7-3.8 2-5.5 2.1-5.5z" style="display:inline"/><path d="m496.3 153.4.5-.3.7-1 .4-.6-.5.5-.8.8-.4.3-1.3.8q-.4.3-.7.8-.1.4.1.9t.8.6h1l.8-.6 3.5-1.7h.7-.2l-.5-.1a5 5 0 0 0-2 .6l-1.7 1-.7.5h-.8q-.3 0-.6-.5-.2-.3-.1-.6 0-.4.6-.7z" style="display:inline;fill:#000;fill-opacity:1;fill-rule:nonzero;stroke:none;stroke-width:.3;stroke-linejoin:round;stroke-miterlimit:3.1;stroke-dasharray:none;stroke-opacity:1"/><path d="M490.6 150.6s1.7.8 2.6 1c1.3.4 2.8 1.2 4.1.6q.5-.1.5-.7 0-.3-.3-.4l-.3-.4" style="fill:none;fill-opacity:1;fill-rule:nonzero;stroke:#000;stroke-width:.30000001;stroke-linejoin:round;stroke-miterlimit:3.1;stroke-dasharray:none;stroke-opacity:1"/><path d="M490.7 152.6a15 15 0 0 0 4.7 1m-4.7.8q1.8.6 3.6.6" style="fill:none;fill-opacity:1;stroke:#000;stroke-width:.3;stroke-linejoin:round;stroke-miterlimit:3.1;stroke-dasharray:none;stroke-opacity:1"/><path d="m605.7 153.7 2.3-.5z" class="UnoptimicedTransforms" style="fill:#ffd9ee"/><path d="m605.8 153.8 1.1-.2 1-.4-1 .1-1.2.3z" class="UnoptimicedTransforms" style="fill:#000;fill-opacity:1;fill-rule:nonzero;stroke:none;stroke-width:.3;stroke-linejoin:round;stroke-miterlimit:3.1;stroke-dasharray:none;stroke-opacity:1"/><path d="m605.5 152 2.2-.6z" class="UnoptimicedTransforms" style="fill:#ffd9ee"/><path d="m605.5 152 1.3-.2 1-.4-1.1.1-1.2.3z" class="UnoptimicedTransforms" style="fill:#000;fill-opacity:1;fill-rule:nonzero;stroke:none;stroke-width:.3;stroke-linejoin:round;stroke-miterlimit:3.1;stroke-dasharray:none;stroke-opacity:1"/><path d="m605.4 150.5 2.1-.7z" class="UnoptimicedTransforms" style="fill:#ffd9ee"/><path d="m605.4 150.6 1.1-.3 1-.5-1 .2-1.2.3z" class="UnoptimicedTransforms" style="fill:#000;fill-opacity:1;fill-rule:nonzero;stroke:none;stroke-width:.3;stroke-linejoin:round;stroke-miterlimit:3.1;stroke-dasharray:none;stroke-opacity:1"/><path d="m604.4 148.8 2.7-.8z" class="UnoptimicedTransforms" style="fill:#ffd9ee"/><path d="m604.4 148.9 1.4-.4q1.2-.3 1.3-.5c.1-.2-.7 0-1.4.3l-1.4.3z" class="UnoptimicedTransforms" style="fill:#000;fill-opacity:1;fill-rule:nonzero;stroke:none;stroke-width:.3;stroke-linejoin:round;stroke-miterlimit:3.1;stroke-dasharray:none;stroke-opacity:1"/><path d="m604.4 148.8 1 1.7" style="fill:#ffd9ee;fill-opacity:1;stroke:#000;stroke-width:.3;stroke-linecap:square;stroke-linejoin:round;stroke-miterlimit:3.1;stroke-dasharray:none;stroke-opacity:1"/><path fill="none" stroke="#000" stroke-linecap="round" stroke-width="1.2" d="M530.4 249c0 3.3-7.7 1.2-7.7 4.4m2.6-12.7c2.2 2.4-5.5 6-3.3 8.3m.7-11.8c1.8 2.6-5.7 5.1-4 7.8m2-11.7c1.4 2.9-7 3.7-5.6 6.6m4.3-10.8c.9 3.1-7 3.1-6.2 6.2m5.6-10.5c.3 3.2-7.6 2-7.2 5.1m7.2-9.5c-.2 3.2-7.7.7-7.9 4m8.6-8.3c-.7 3.2-7.7-.5-8.4 2.6m9.8-6.7c-1.2 3-7.5-1.7-8.7 1.2m10.8-5c-1.7 2.7-7.2-3-8.8-.3m11.4-3.3c-2 2.5-6.6-4-8.7-1.5m11.8-1.5c-2.4 2.1-5.8-5-8.2-2.9m-1.6-9.8c3 1.3-2 7.5 1 8.8m-5-10.8c2.7 1.5-2.8 7.2 0 8.7m-3.8-11.2c2.6 1.8-3.6 6.9-1 8.7m-2.5-11.6c2.4 2.1-4.2 6.5-1.8 8.6m-1.3-11.8c2.1 2.3-5 6-2.8 8.3m0-11.9c1.9 2.6-5.5 5.4-3.6 8m1.3-11.8c1.5 2.8-6.1 4.8-4.6 7.5m3.4-11.7c2 2.5-6.7 5.4-4.9 8m36 70.6c.4 3.1-7.2 1.7-6.9 4.9m8 2.9c0 3.2-7.7 1-7.7 4.3m7.7.3c0 3.2-7.7 1.2-7.7 4.4m7.7.3c0 3.2-7.7 1.1-7.7 4.3m7.7.4c0 3.2-7.7 1.1-7.7 4.3m7.7.4c0 3.2-7.7 1-7.7 4.3m7.7.3c0 3.2-7.7 1.1-7.7 4.4m7.7.3c0 3.2-7.7 1.1-7.7 4.3m7.7.4c0 3.2-7.7 1.1-7.7 4.3m7.7.3c0 3.2-7.7 1.2-7.7 4.4m7.7.3c0 3.2-7.7 1.1-7.7 4.3m7.7.4c0 3.2-7.7 1.1-7.7 4.3m7.7.4c0 3.2-7.7 1-7.7 4.3m7.7.3c0 3.2-7.7 1.2-7.7 4.4m7.9 1c0 3.2-8 1-8 4.2m1.7 10.7c-2.8 1.7-4.8-6-7.6-4.4m3 7c-2.7 1.7-4.7-6-7.5-4.4m3 7c-2.7 1.6-4.7-6-7.5-4.4m3 7c-2.7 1.6-4.7-6-7.5-4.4m3.1 7c-2.8 1.6-4.8-6-7.6-4.5m3.1 7.1c-2.8 1.6-4.8-6-7.6-4.5m3.1 7.1c-2.8 1.6-4.8-6-7.6-4.5m3.1 7.1c-2.8 1.6-4.8-6-7.5-4.5m3 7.1c-2.8 1.6-4.8-6-7.5-4.4m3 7c-2.7 1.6-4.8-6-7.5-4.5m3 7.1c-2.7 1.6-4.8-6-7.5-4.5m3 7.1c-2.7 1.6-4.8-6-7.5-4.5m3 7.1c-2.7 1.6-4.8-6-7.5-4.5m3 7.1c-2.7 1.6-4.8-6-7.5-4.5m3 7c-2.7 1.7-4.8-6-7.5-4.4m3.7 6.6c-2.7 1.6-4.8-6-7.5-4.5m79.9-43.2c-1 3-6.7-1.5-7.7 1.5m6.3 3.9c-2.3 2.3-6.3-4.9-8.5-2.6m.5-125.7c1-2 3.4-2.1 5.3-2 1.9.3 3.2-.4 3.2-.4"/><path fill="#ffd90f" d="M524.5 330c6.3-3.4 6.3-7.2 6.2-11.6v-72.3l-1.7-2a27.7 27.7 0 0 1 2.6-44.6q0 .2.7-.4l-4.6-8.2a39 39 0 0 1-29.7-25.8h-95.6a37 37 0 0 1-29.7 25.8l-4.6 8.2.7.5a27.6 27.6 0 0 1 2.6 44.6l-1.7 1.9v72.3c0 4.4 0 8.2 6.3 11.7 7.2 4 65.9 37.9 74 42.6 8.1-4.7 67.2-38.6 74.5-42.6zm-32.2-156.5a45 45 0 0 0 28.3 24.4 36 36 0 0 0 1.7 51.5v72.1c-.1 0-.4.4-1.9 1.3-5.7 3-50.6 28.7-70.4 40.2a8086 8086 0 0 0-70-40.2c-1.4-.9-1.7-1.4-1.8-1.4l-.1-3v-69a36 36 0 0 0 1.7-51.5 45 45 0 0 0 28.3-24.4h42z" style="stroke:#000;stroke-opacity:1;fill:none"/><path fill="#197352" d="M380 257.9s1.9-1.9 5.6-3.7 5-2.8 7.8-1c2.8 1.9 5.6 2.8 5.6 2.8s3.7-2.3 6.9-4.6 2.3-3.7 6.4-2.8 14.3-1.8 18-3.7c3.7-1.8 5.6.5 8.8-3.7 3.2-4.1 3.2-3.7 7.9-5.5 4.6-1.8 3.6-5 9.6-3.2s9.3.9 18 7.8c8.8 7 14.3 9.3 18 13s7.4 6 7.4 6 3.7-1.5 7.4-3.3 5-3.2 7.9-1.4a15 15 0 0 0 4.8 2.3m0 33.7-139.6 1-.5-33.8" style="fill:none;stroke:#000;stroke-width:.5;stroke-dasharray:none;stroke-opacity:1"/><path fill="#fff" d="m433.4 292.4 3-.2-2.9-4.5h-1zm-24.1-1.6-6-.9c1 3.8 1.2 4.8 0 7l5.8-1.2c1.3-1.4 2.3-2.8.2-5z" style="stroke:#000;stroke-width:.3;stroke-dasharray:none;stroke-opacity:1"/><path fill="#fff" d="m420.4 291.7-11.4-1.5s1 1.3 0 6.2l11.4-1.2q.5-2 0-3.5z" style="fill:#fff;fill-opacity:1;stroke:#000;stroke-width:.3;stroke-dasharray:none;stroke-opacity:1"/><path fill="#fff" d="M413 281c1.5-.7.8-2.2 0-3.5l7.2.6c1.4.6 1.3 1.6.6 3.3-3.9-.5-7.9-.4-7.9-.4z" style="stroke:#000;stroke-width:.3;stroke-dasharray:none;stroke-opacity:1"/><path fill="#fff" d="M431.2 290.3c.6-.6 1-2.5 0-5l-9.3-.7c.6.9 1.2 2.4.4 5.7 3.1-1 8.5-.2 9 0z" style="stroke:#000;stroke-width:.3;stroke-miterlimit:4.8;stroke-dasharray:none;stroke-opacity:1"/><path fill="#fff" d="M430 284q.9-1 .1-2.4l-5.7-.3q.5.9-.2 2.4 3.1 0 5.8.3zm-18.4 5.8c1.3-2.3 2-4.9 1-7.8l9.4.4c.3 1.3.3 5.5-1.8 7.4h-8.6" style="stroke:#000;stroke-width:.3;stroke-dasharray:none;stroke-opacity:1"/><path fill="#d18644" d="M490 306s1.8-1 1.2-3.5c0 0-10.8 1-17.1.8 0 0-.4 1 1 2.8z" style="stroke:#000;stroke-width:.3;stroke-dasharray:none;stroke-opacity:1"/><path fill="#fff" d="M490.7 300.5c-6-7.3-5.9-17.5-5.9-17.5l-5.2 2.5v17ZM476 285.2s-5.7 8.3-8.3 14.6l10 2.5c-2-5.7-3.4-13-1.7-17.1z" style="stroke:#000;stroke-width:.3;stroke-dasharray:none;stroke-opacity:1"/><path d="M575.9 118.2c-.1-.5-1.2-1.2-1.7-1.2s-6.3-.5-6.8 2c0 0-2.6 8-3 12.2-.4 4.6 1 13.8 1 13.8q-1.4.7-3.1 1a65 65 0 0 1 5.3 15.6l17.3-.7c-1.4-4.8-1.5-9.7-3.9-14.5l-2.5-1s.5-3.4.5-7.3c0-4 2.9-2.7 2.9-5.6l-.5-4.3c0-1.3-5.3-9-5.5-10" style="fill:#ffd9ee;fill-opacity:1"/><path d="M579 137.5v-.5l-.3.3c-.5 1-2 3.3-4.3 3.2q-1.1 0-2-.3l-3-1h-.1l.8.5q.9.5 2.2.8l2 .3c2.5.2 4.2-2.3 4.7-3.3" style="fill:#000;fill-rule:nonzero;stroke:none;stroke-width:.3;stroke-dasharray:none;stroke-opacity:1"/><path d="m507.8 50.5-4.5.3z" class="UnoptimicedTransforms" style="fill:#000"/><path d="m507.8 50.3-2 .2c-1.3 0-2.5.3-2.5.3h2.6l2-.2z" class="UnoptimicedTransforms" style="fill:#000;fill-rule:nonzero;stroke:none;stroke-width:.3;stroke-dasharray:none;stroke-opacity:1"/><path d="m505.8 53-4.1.1z" class="UnoptimicedTransforms" style="fill:#000"/><path d="M505.8 52.9h-2l-2.1.2s1 .2 2 .1h2z" class="UnoptimicedTransforms" style="fill:#000;fill-rule:nonzero;stroke:none;stroke-width:.3;stroke-dasharray:none;stroke-opacity:1"/><path d="m503.8 57-5.5.2z" class="UnoptimicedTransforms" style="fill:#000"/><path d="m503.8 56.8-2.7.2-2.8.2h5.5z" class="UnoptimicedTransforms" style="fill:#000;fill-rule:nonzero;stroke:none;stroke-width:.3;stroke-dasharray:none;stroke-opacity:1"/><path d="m499.5 61-4.5-.7z" class="UnoptimicedTransforms" style="fill:#000"/><path d="m499.6 60.9-2.3-.4-2.3-.2 2.3.5 2.2.4z" class="UnoptimicedTransforms" style="fill:#000;fill-rule:nonzero;stroke:none;stroke-width:.3;stroke-dasharray:none;stroke-opacity:1"/><path d="m497.5 63.1-4.4-.7z" class="UnoptimicedTransforms" style="fill:#000"/><path d="m497.5 63-2-.4-2.4-.2 2.3.5 2 .4z" class="UnoptimicedTransforms" style="fill:#000;fill-rule:nonzero;stroke:none;stroke-width:.3;stroke-dasharray:none;stroke-opacity:1"/><path d="m495.6 65.6-4-.6z" class="UnoptimicedTransforms" style="fill:#000"/><path d="m495.6 65.5-1.7-.3c-1-.2-2.2-.2-2.2-.2l2.2.5 1.7.3z" class="UnoptimicedTransforms" style="fill:#000;fill-rule:nonzero;stroke:none;stroke-width:.3;stroke-dasharray:none;stroke-opacity:1"/><path d="m494.2 67.5-4-.7z" class="UnoptimicedTransforms" style="fill:#000"/><path d="m494.3 67.4-2.1-.4-2-.2 2 .5 2 .3z" class="UnoptimicedTransforms" style="fill:#000;fill-rule:nonzero;stroke:none;stroke-width:.3;stroke-dasharray:none;stroke-opacity:1"/><path d="m493.3 70.3-5.3-1z" class="UnoptimicedTransforms" style="fill:#000"/><path d="m493.3 70.1-2.4-.4-2.8-.4 2.8.7 2.4.4z" class="UnoptimicedTransforms" style="fill:#000;fill-rule:nonzero;stroke:none;stroke-width:.3;stroke-dasharray:none;stroke-opacity:1"/><path d="m492.2 72.4-6-1.3Z" class="UnoptimicedTransforms" style="fill:#000"/><path d="m492.2 72.2-3-.6-3-.5 3 .8 3 .6z" class="UnoptimicedTransforms" style="fill:#000;fill-rule:nonzero;stroke:none;stroke-width:.3;stroke-dasharray:none;stroke-opacity:1"/><path d="m489.2 74.9-6.2-1.4z" class="UnoptimicedTransforms" style="fill:#000"/><path d="m489.2 74.7-3.5-.8c-1.3-.3-2.7-.4-2.7-.4l2.7.7 3.4.8z" class="UnoptimicedTransforms" style="fill:#000;fill-rule:nonzero;stroke:none;stroke-width:.3;stroke-dasharray:none;stroke-opacity:1"/><path d="m489.2 77.2-6.2-1.7z" class="UnoptimicedTransforms" style="fill:#000"/><path d="m489.2 77-3.5-.9c-1.3-.4-2.7-.6-2.7-.6l2.6.9 3.5 1z" class="UnoptimicedTransforms" style="fill:#000;fill-rule:nonzero;stroke:none;stroke-width:.3;stroke-dasharray:none;stroke-opacity:1"/><path d="m486.4 79-9.6-2.5z" class="UnoptimicedTransforms" style="fill:#000"/><path d="m486.4 78.9-6.4-1.7c-1.6-.5-3.2-.7-3.2-.7l3.1 1 6.5 1.7z" class="UnoptimicedTransforms" style="fill:#000;fill-rule:nonzero;stroke:none;stroke-width:.3;stroke-dasharray:none;stroke-opacity:1"/><path d="m482.3 80.6-6-1.6Z" class="UnoptimicedTransforms" style="fill:#000"/><path d="m482.3 80.5-3.1-.9-2.9-.6 2.8 1 3.1.8z" class="UnoptimicedTransforms" style="fill:#000;fill-rule:nonzero;stroke:none;stroke-width:.3;stroke-dasharray:none;stroke-opacity:1"/><path d="m479.5 83.2-5.3-1.6Z" class="UnoptimicedTransforms" style="fill:#000"/><path d="m479.5 83-2.8-.8-2.5-.7s1.2.6 2.5 1l2.7.8z" class="UnoptimicedTransforms" style="fill:#000;fill-rule:nonzero;stroke:none;stroke-width:.3;stroke-dasharray:none;stroke-opacity:1"/><path d="m474.4 86.2-3.6-1.2z" class="UnoptimicedTransforms" style="fill:#000"/><path d="m474.5 86-1.5-.5-2.2-.5 2 .8 1.6.5z" class="UnoptimicedTransforms" style="fill:#000;fill-rule:nonzero;stroke:none;stroke-width:.3;stroke-dasharray:none;stroke-opacity:1"/><path d="m471 88.5-3.2-1Z" class="UnoptimicedTransforms" style="fill:#000"/><path d="m471.1 88.3-1.5-.4-1.8-.4 1.7.7 1.5.4z" class="UnoptimicedTransforms" style="fill:#000;fill-rule:nonzero;stroke:none;stroke-width:.3;stroke-dasharray:none;stroke-opacity:1"/><path d="M423 86.7a13 13 0 0 0 3.1-1.9l1.3-1Z" class="UnoptimicedTransforms" style="fill:#000"/><path d="M423.1 86.8a13 13 0 0 0 4.2-2.9l-1.7 1.1q-1.5 1-2.6 1.5z" class="UnoptimicedTransforms" style="fill:#000;fill-rule:nonzero;stroke:none;stroke-width:.3;stroke-dasharray:none;stroke-opacity:1"/><path d="M419.8 85.2a7 7 0 0 0 2.5-1 6 6 0 0 0 1.6-1.5l-.1.1-.4.3-1.3.9q-.9.7-2.4 1zm-2.5-1.7v.2h.1a8 8 0 0 0 2.6-1.2c.9-.6 1.6-1.4 1.6-1.4l-1.7 1.2q-1 .8-2.6 1.2" style="fill:#000;fill-rule:nonzero;stroke:none;stroke-width:.3;stroke-dasharray:none;stroke-opacity:1"/><path d="m415 82.3 3.8-2.4z" class="UnoptimicedTransforms" style="fill:#000"/><path d="m415.2 82.4 1.7-1.1 2-1.4-2.1 1.1-1.8 1.2Z" class="UnoptimicedTransforms" style="fill:#000;fill-rule:nonzero;stroke:none;stroke-width:.3;stroke-dasharray:none;stroke-opacity:1"/><path d="m412.8 80.2 4.2-2.4z" class="UnoptimicedTransforms" style="fill:#000"/><path d="m412.8 80.3 2.2-1.2c1-.5 2-1.3 2-1.3l-2.2 1-2.1 1.3z" class="UnoptimicedTransforms" style="fill:#000;fill-rule:nonzero;stroke:none;stroke-width:.3;stroke-dasharray:none;stroke-opacity:1"/><path d="m409.5 78.4 4-2.2z" class="UnoptimicedTransforms" style="fill:#000"/><path d="m409.5 78.3.1.2 2.3-1.3 1.6-1s-1 .3-1.8.8z" class="UnoptimicedTransforms" style="fill:#000;fill-rule:nonzero;stroke:none;stroke-width:.3;stroke-dasharray:none;stroke-opacity:1"/><path d="m406 76.5 4.4-1.8z" class="UnoptimicedTransforms" style="fill:#000"/><path d="m406.1 76.6 2.1-.8 2.2-1s-1.2.2-2.3.7l-2 .9z" class="UnoptimicedTransforms" style="fill:#000;fill-rule:nonzero;stroke:none;stroke-width:.3;stroke-dasharray:none;stroke-opacity:1"/><path d="m404 74.4 4.2-1.4z" class="UnoptimicedTransforms" style="fill:#000"/><path d="m404 74.6 2.2-.8 2-.8-2 .6-2.2.7z" class="UnoptimicedTransforms" style="fill:#000;fill-rule:nonzero;stroke:none;stroke-width:.3;stroke-dasharray:none;stroke-opacity:1"/><path d="m405.4 71-4.4 1.4Z" class="UnoptimicedTransforms" style="fill:#000"/><path d="M403.2 71.8c1.1-.3 2.2-.9 2.2-.9l-2.3.6-2.1.7v.3z" class="UnoptimicedTransforms" style="fill:#000;fill-rule:nonzero;stroke:none;stroke-width:.3;stroke-dasharray:none;stroke-opacity:1"/><path d="m397.3 69.1 4.7-1z" class="UnoptimicedTransforms" style="fill:#000"/><path d="m397.3 69.3 2.7-.6 2-.5-2 .2-2.7.6z" class="UnoptimicedTransforms" style="fill:#000;fill-rule:nonzero;stroke:none;stroke-width:.3;stroke-dasharray:none;stroke-opacity:1"/><path d="m394.8 66.9 6-1.3z" class="UnoptimicedTransforms" style="fill:#000"/><path d="m394.8 67 3.5-.7 2.5-.7s-1.3.1-2.5.4l-3.6.7z" class="UnoptimicedTransforms" style="fill:#000;fill-rule:nonzero;stroke:none;stroke-width:.3;stroke-dasharray:none;stroke-opacity:1"/><path d="m392.6 62.5 5.6-.3z" class="UnoptimicedTransforms" style="fill:#000"/><path d="m392.8 62.3-.2.2.2.1 3.2-.1c1 0 2.2-.3 2.2-.3H396z" class="UnoptimicedTransforms" style="fill:#000;fill-rule:nonzero;stroke:none;stroke-width:.3;stroke-dasharray:none;stroke-opacity:1"/><path d="M385.8 58.7h7.6Z" class="UnoptimicedTransforms" style="fill:#000"/><path d="m386 58.5-.2.2.2.1h4l3.4-.2H390z" class="UnoptimicedTransforms" style="fill:#000;fill-rule:nonzero;stroke:none;stroke-width:.3;stroke-dasharray:none;stroke-opacity:1"/><path d="m382 54.4 7.3.2z" class="UnoptimicedTransforms" style="fill:#000"/><path d="m382 54.5 4 .2h3.3s-1.6-.3-3.3-.3l-4-.2z" class="UnoptimicedTransforms" style="fill:#000;fill-rule:nonzero;stroke:none;stroke-width:.3;stroke-dasharray:none;stroke-opacity:1"/><path d="M379.8 51h4.2z" class="UnoptimicedTransforms" style="fill:#000"/><path d="m379.8 51 2.4.2 1.8-.1-1.8-.2-2.4-.1z" class="UnoptimicedTransforms" style="fill:#000;fill-rule:nonzero;stroke:none;stroke-width:.3;stroke-dasharray:none;stroke-opacity:1"/><path d="m374.7 46 3 .5Z" class="UnoptimicedTransforms" style="fill:#000"/><path d="m374.6 46.1 1.9.3h1.3l-1.3-.3-1.8-.3z" class="UnoptimicedTransforms" style="fill:#000;fill-rule:nonzero;stroke:none;stroke-width:.3;stroke-dasharray:none;stroke-opacity:1"/><path fill="#ffd100" d="m587.6 163.5-3.7-16.5-3.6-.7c.3.2.9 1.2 1.4 4.3l2.1 9.9-15.9.7s-1.8-9.7-5-15.3l-2.7.4c2 3.2 5.7 17.7 5.7 17.7l7.3-.2q.4 2 .4 4.2c-.5 4-2.5 8.3-3.5 11.7l-4 13.7 4.3-.5s2.5-6.6 4.5-12.8c2.1-6.2 2.7-8.7 3.2-13.2l-.2-3.2z" style="stroke:#000;stroke-width:.3;stroke-dasharray:none;stroke-opacity:1"/><path fill="#0077c8" d="M553.5 204.6s2.4-2.7 6.2-3.8 8-1.3 13.9-1.7c5.8-.4 4.1.4 8.3 1 4.1.7 8.6 2.8 10.3 5 0 9.2-.7 20.6-2 31s-1.4 7-2 10.4l-.1.7 4.9 3.3s3.6 4.5 6.7 2.8c4-1.6 2.2-1.2 1.9-16.8s-5.2-39.1-5.2-39.1l-1-2c-.7-4.3-5.8-3.4-6.8-2.2l-1.4 1.6-3.5-1c-2.6-1-5.3-1.1-10-1.1s-4.2 0-9 .9-7 1.5-9.2 3.6l-2 7.4" style="stroke:#000;stroke-width:.3;stroke-dasharray:none;stroke-opacity:1"/><path d="m582.1 205.2-2-33-10.7 33.3m20.6-.1-9.8-33.3" style="fill:none;stroke:#000;stroke-width:.3;stroke-linecap:round;stroke-linejoin:bevel;stroke-miterlimit:3.6;stroke-dasharray:none;stroke-opacity:1"/><path d="M579.4 115.8c-.5-2-1-2-3-3.6-2.2-1.5-4-1.5-6-1.5-1.9 0-3.3 1.5-4.6 3-1.4 1.7-1.2 3.2-1.2 3.2v3s-.2 1-1.4 1.7-1.7 1.9-3 4q-1.8 2.9-.1 6.7c1 2.6-.5 2.3-2.6 3.3-2 1-2.6 4.9-3.8 6.2-1.2 1.4 1.2 1.6.3 3.3s-.9 1.2-.2 2.6v.1c4.2-1.2 8.7-1.8 8.7-1.8q1.5-.3 2.9-1s1.3-2.5 1.3-6.5c0-3.9-.6-6.7-.6-6.7s-1.6 0-1.7-.6c-.2-1.2 2.3-1.4 2.1-2.3-.2-1-.2-2.3-.2-2.3l1.4-5.4c.4-2.5 1.4-2.3 2-.9s3 .2 3.5-1.6 1.9-1.1 2.1-.2 1.6 3 1.6 3 2.2 6 2.9 7.1c.7 1.2 1 1.7.8 3.5-.4 2.9-1.6 2-1.6 6 0 3.9-.5 7.3-.5 7.3l1.4.8c1.3.5 1.7.6 4.1 1 1.1.1 2 .5 4.3 1.4l.3-.2s-.2 0-.3-.5q-.2-1 .8-1.6c.7-.3.4-1.2-.5-3.8s-1.5-2.2-3.3-3.8-1.2-2-1.4-6-1-5.7-2.4-9-.9-4.4-.9-4.4z" style="fill:#d18644;fill-opacity:1;stroke:#000;stroke-width:.3;stroke-dasharray:none;stroke-opacity:1"/><path fill="#ff3515" d="M570.4 134.6c1-.9 1.2-.9 2.6-.9s1.6.4 2.3.1c.7-.2 1.6.8 1.6.8s-1 0-2 .5c-1.2.4-1.5-.3-2.4-.3z" style="fill:#000;fill-opacity:1"/><path fill="#d18644" d="M571.8 130.7c1.2.7 1.2.5 1.9.5s1.5 0 1.8-.5-.4-1.9-.4-1.9 2.3 1.9.9 2.3c-1.4.5-2.1.8-3 .5-1-.2-1.2-1-1.2-1" style="fill:#000;fill-opacity:1"/><path fill="#f2a900" d="M564.9 119.6c3.5-1.8 6.5-3.2 8.3-2.7l7.4 2.2s.4-2.4-1-3c-5.2-2-8.7-3-11.7-1.1l-3 1.9c-1 .3-.9 3.2 0 2.7" style="stroke:#000;stroke-width:.3;stroke-dasharray:none;stroke-opacity:1"/><path fill="#fff" d="M565.7 122.8c.3-1 1.6-1.3 2.5-1.4q4.3-.4 8.6.2c1 .1 1.5 0 2.6 1 1 .8 1.1 2.8.8 3.6-.3 1-.3 2-.7 1.5l-1.3-.4c-3.7-.7-11.2-.5-11.2-.5s-1.4.5-1.5 0c-.1-1.1-.2-3.2.2-4z" style="stroke:#000;stroke-width:.3;stroke-dasharray:none;stroke-opacity:1"/><path fill="#f2a900" d="M447.7 99.8s-.6-1.3-.7-2.6l-1.9.2c.4.7.4 1.8.5 2.4 0 1.5.3 2.6-1.5 3-1.8.6-2.4 1-2.7 2.7.8-.8 1.4-2 2.2-1.2.8.7 1.9 1.1 1.9 1.1s-1.2-1.6.5-2c1.7-.6 4.8-.5 4.8-.5s-2.2-1-2.6-1.7l-.5-1.4" style="display:inline;fill:#ffd100;fill-opacity:1;stroke:#000;stroke-opacity:1;stroke-width:.3;stroke-dasharray:none"/><path fill="#f2a900" d="m459 96.5-1.6.3.4 2.7c.2.7-1.6 1.2-2.3 2 0 0 3.1-.1 3 .8q.1 2 .3 2.2c.2.2.5-.5 1.2-.9l2.3.6c1.4.4 2 1.3 2 1.3s.7-2.3-1.6-3.5c-2-1-2-.7-2.7-1.5-.6-.8-.8-3.3-1-4z" style="display:inline;fill:#ffd100;fill-opacity:1;stroke:#000;stroke-width:.3;stroke-dasharray:none;stroke-opacity:1"/><path d="M436.8 46.4s1.4.4 1.6 1-.3 1.7-.3 1.7l-1.7-.4h-2.8s-1.5.6-1.6.5c0-.2.7-1.7.9-1.6q.8-.8 2-1.2z" style="fill:#ffd100;fill-opacity:1;stroke:none;stroke-width:.3;stroke-linejoin:round;stroke-miterlimit:4.8;stroke-dasharray:none;stroke-opacity:1"/><path fill="#b3875a" d="M459 96.5c-.3-2.8-.1-1.1 1.4-1.3 1.6-.3 1.1-3.5 1.1-3.5s4.8-.7 7-.7c2 0 1.3-2.5 3.8-3.2 2.6-.7 1.9-1.6 1.9-1.6s.4-.7 2.8-.5c2.3.2 2.5-1 2.5-1v-1.5l2.5-.5.2-2 3.7-.3.5-1.4 3-.4-.2-1.4.9-.5-1-1.8h2.8l.3-2.5 2-.7-.9-1.4 1.6-.5-.7-2.3 1.4-.4v-1.5l2.1-.9-.2-1.6 2.5-.2-.5-1.6v-.2s2.6-.7 4-3.5 3.2-3.4 3.2-3.4l-1-1.2 1.9-1 .2-1.5s3.7-.7 7.9-2.3c4.1-1.7 5-5.6 5-5.6s-9.4 1.6-21.4 3-22.4 2.6-27.7 4.2-1 6-7.6 12.9c-3.9 4-9.7 1.8-11.3-1.2s-3.7-9-3.7-9h1.8l-1.8-3.4 1.8-1-5.3-2.7a7.5 7.5 0 0 0-8.7.9c-4.2-.4-4.9 3-4.9 3s2.8-1.1 4.7-.4c1.8.6 3.4-.7 4.1 9.6.7 10.4-4.4 8.6-10.1 8.4-4.9-.7-6-2.1-7.2-6-1.2-4 .2-6-4.6-9.5-4.9-3.5-20.5-6.2-29.8-7.8-9.2-1.7-21.9-5.1-21.9-5.1s.2 1.8 3 3.7c2.7 1.8 4.4 3.7 4.4 3.7l1.6 2.3c1.4 2 3.7 2.7 3.7 2.7l1.8 3c1 1.4 5 5.8 6.7 7.2 1.6 1.4 4.6 1.4 4.6 1.4q-1.6 0-1.8 2a9 9 0 0 0 3.7 2.4l-.5 1.6 3 .6-.5 2.4 4.2.9-1 1.3 4 .7-1 1.4 3 .7-.6 1.4 4.1.5-.7 1.8h4l-1 1.6 3.3.5s6.2 4.1 10.6 5.3c4.4 1.1 2.3 2.5 7.8.7l3.7-1.4c.5-.1 3 1 2.3 2.3-.7 1.4.7 2.5 2.1 5.5s.7 2.1 2.3 2.1q1 0 1.2.6l1.9-.1q-.2-.7-.1-1.2c.2-1.6 1.2-1.8 1.2-1.8l2 1.3L449 91c-.7-3.3-.3-3.9-.3-3.9l1.9.5s1.4 4.6 4.6 6.9c1.8 1.3 2.1 1.5 2.2 2.2l1.5-.2" style="display:inline;fill:none;stroke:#000;stroke-width:.3;stroke-dasharray:none;stroke-opacity:1"/></svg>