<svg xmlns="http://www.w3.org/2000/svg" width="1000" height="700" style="shape-rendering:geometricprecision;text-rendering:geometricprecision;fill-rule:evenodd;clip-rule:evenodd" viewBox="0 0 3000 2100"><defs><style>.str0{stroke:#002868;stroke-width:4}.fil4{fill:none}.fil3{fill:#002868}.fil1{fill:#fff}</style></defs><path id="rect2289" d="M0 0h3000v2100H0z" style="fill:#bf0a30"/><path id="rect2290" d="M150 150h2700v1800H150z" class="fil1"/><path id="rect2291" d="M225 225h2550v1650H225z" style="fill:#002868"/><path id="path2288" d="M1006.6 1200.7c-10-49.7-41.4-91-51.4-94.4-9.9-3.3-28.1-8.3-28.1-8.3s13.2-10 6.6-28.1-36.4-68-38-96c-1.7-28.2 6.6-64.6 0-87.8-6.7-23.2-31.5-43-33.2-86.1-1.6-43 69.6-102.7 111-104.3 41.4-1.7 79.4 13.2 102.6 11.6 23.2-1.7 51.4-31.5 69.6-38.1s26.5 3.3 38-1.7 106-82.8 200.4-82.8 165.6 34.8 187.1 34.8 61.3-10 91 0c29.9 10 66.3 54.6 109.4 66.2 43 11.6 291.4 56.3 319.5 101s46.4 109.3 46.4 140.8c0 31.4-8.3 115.9-8.3 132.4 0 16.6 8.3 38.1 5 59.6-3.3 21.6-13.3 29.9-13.3 29.9s-6.6-36.5-8.2-58c-1.7-21.5 13.2-81.1 11.6-116-1.7-34.7-16.6-77.7-16.6-77.7s-10 49.6-18.2 81.1c-8.3 31.5-33.1 120.9-33.1 172.2s14.9 125.8 14.9 125.8-41.4 71.2-44.7 99.4c-3.4 28.1-10 94.4-8.3 102.7s-10-3.4-13.3 6.6-1.6 23.2-1.6 23.2l-38.1-3.4s1.6-16.5 8.3-28.1c6.6-11.6 16.5-19.9 14.9-34.8-1.7-14.9 1.6-79.5 1.6-79.5s-28.1 48-36.4 66.3-8.3 41.4-11.6 49.7c-3.3 8.2-10 8.2-13.2 18.2-3.3 10-8.3 10-8.3 10l-29.8 1.6s58-142.4 61.2-178.9c3.4-36.4-36.4-111-44.7-135.7-8.2-24.9-8.2-44.7-16.5-54.7s-36.4-21.5-46.4-16.5-64.6 56.3-76.1 71.2-41.4 43-41.4 43-66.3-36.4-101-44.7-121-14.9-121-14.9 6.7 127.5 3.4 147.4c-3.3 19.8-19.9 26.5-19.9 39.7v41.4c0 10-26.5 13.2-33 21.5-6.7 8.3 0 15-8.4 26.5s-19.8 8.3-24.8 15c-5 6.5-1.7 46.3-1.7 46.3l-66.2-1.7s26.5-54.6 24.8-86c-1.6-31.5-28.1-77.9-33-102.7-5-24.9-20-63-39.8-63-19.9 0-36.4 10-36.4 10s5-82.8-23.2-117.6-96-31.4-117.6-26.5c-21.5 5-44.7 36.5-53 39.8s-14.9 0-28.1 5-29.8 18.1-41.4 28" class="fil1"/><g id="g3286"><g id="g1883"><path id="path1825" d="M1307.6 690c0-13.7 11.7-10 23-15.1 11.3-5.2 21.2-12.7 21.2-12.7l.5 35.3H1309z" class="fil1 str0"/><path id="path1826" d="M1494.3 723.8c-11.7 7-14.6.5-22-6.6-7.6-7-30.2-23.5-30.2-23.5l60.2 9.9z" class="fil1 str0"/><path id="path1824" d="M1307.7 687.9c-1.5 13.5-.6 23.3 6.5 29.8s12.7 4.2 17.8 3.3 68.2-26.4 87.5-26.4 45.7 1 60.2 14.6c6.6 6.2 13.2 10.8 12.3 14.6-1 3.8 23.5-13.2 23-24s-34.3-32.4-70.5-37.6-84.6 24-119.5 26.8c-12.5 1.2-17.4 3-17.3-1.1z" class="fil1" style="stroke:#002868;stroke-width:4;stroke-linejoin:bevel"/><path id="text1827" d="M1493.3 703.2q-1.8 2.7.8 4.7c1.1.9 3 1.7 4 .4 1.1-1.3.2-2.5-.6-3.6a9 9 0 0 1-2.5-3.6c-.7-2 1.3-4 3.3-4.1 2.3-.2 4.8 2 5.4 4.2q.5 1.6-.8 3.4l-1.3-1q.5-1 .6-1.7c0-1.5-2.1-3.5-3.7-3.4-1.1.1-2.2 1.2-1.7 2.4s1.7 2.4 2.5 3.5c1.2 1.4 1.7 3 .4 4.7-1.9 2.3-4.6 1.5-6.6-.1-2.2-1.8-3-4.5-1.1-6.8z" class="fil3"/><path id="path1848" d="m1494.7 693.3-.9 1.2-3.5-2.5-6.7 9.4-1.4-1.1 6.6-9.3-3.6-2.6.9-1.2z" class="fil3"/><path id="path1847" d="m1470.5 680.4 1.6.7-2.2 4.9 6.2 2.8 2.2-4.8 1.6.7-5.4 11.8-1.6-.7 2.5-5.5-6.1-2.9-2.6 5.6-1.6-.8z" class="fil3"/><path id="path1846" d="M1457.3 677q1.8.6 3 1.6 1.6 1.5 1.3 4l-1.7-.4q0-1.5-.7-2.4-.8-.8-2.3-1.2a4 4 0 0 0-3.3.5q-1.5 1.1-2.2 3.7a7 7 0 0 0 0 3.9q.7 1.5 3 2.2 1.6.5 3-.3 1.4-.7 2-2.9l-4-1 .4-1.4 5.5 1.4-1.7 6.7-1-.2v-1.8l-2 1a6 6 0 0 1-3-.1 6 6 0 0 1-3.5-2.5 7 7 0 0 1-.5-5.4 7 7 0 0 1 3-4.6q2.1-1.4 4.7-.7" class="fil3"/><path id="path1844" d="m1443.1 674.9 1.7.1-1.3 13-1.8-.2z" class="fil3"/><path id="path1842" d="M1433 680q1.3.1 2-.3.8-.5.8-1.8t-.9-2l-1.4-.3-4.3-.2-.2 4.4zm-5.5-6.3 6 .3q1.5 0 2.5.6 1.8 1 1.6 3.2 0 1.1-.6 1.8-.5.8-1.4 1.2.8.3 1.1.8t.4 1.7v2.9l.5.8v.3l-2.1-.1-.2-.5v-3.2q0-1.2-.8-1.7l-1.6-.4-4-.2-.3 5.6-1.8-.1z" class="fil3"/><path id="path1840" d="m1377.3 682.6 1.7-.4 2.4 11.2 6.4-1.3.4 1.5-8.2 1.7z" class="fil3"/><path id="path1839" d="m1369.6 693.3-3.4-5-.6 6zm-4.8-6.6 1.9-.6 8 11.4-2 .5-2.2-3.4-5 1.3-.3 4.1-1.8.5z" class="fil3"/><path id="path1836" d="m1348.6 692.8 1.6 7.8q.3 1.5 1 2.2 1 1.2 2.9.9 2.1-.4 2.6-2.1.3-1 0-2.3l-1.6-7.9 1.7-.4 1.5 7.2q.5 2.4.1 3.7-.6 2.5-3.9 3.3t-4.8-1.4q-.8-1.2-1.4-3.5l-1.5-7.2z" class="fil3"/><path id="path1832" d="m1317.1 702.9 9.1-2.9.5 1.5-7.4 2.4 1.2 3.8 6.8-2.3.5 1.5-6.9 2.2 1.4 4.2 7.5-2.4.5 1.4-9.1 3z" class="fil3"/><path id="path1849" d="m1345.8 707.4-.6 1.2-2.3-1a7 7 0 0 1-3 1.8 6 6 0 0 1-5.2-.8 8 8 0 0 1-2.7-4.2q-.7-2.6.2-4.7.9-2.8 4.2-3.6t5.4.8q1.8 1.4 2.4 4 .9 2.9-.5 5.6zm-5.2 0q.4 0 .7-.4l-1.6-.8.5-1.2 2 .8q1-2.2.3-4.5-.6-2.1-2.1-3.2a4 4 0 0 0-3.5-.5q-2.1.4-3 2.1-.7 1.5 0 4.3.5 2.3 2 3.3c1.4 1 3.2.7 4.7.2" class="fil3"/></g><g id="use1823"><path id="path2293" d="M1476.8 1013.6s-11.1-9-14-13.2l-10.3-17.4 19.4-20.1s14.6 18 14.6 21.5-9.7 29.2-9.7 29.2z" class="fil1 str0"/><path id="path2294" d="M1479.6 915.7s-24.4-20.2-26.4-25c-2.1-4.9-2.8-22.3-2.8-22.3l11.8-2.7s4.9 4.1 11.1 7.6 15.3 4.2 15.3 4.2z" class="fil1 str0"/><path id="path2295" d="m1496.4 741.4-.5-11.6c-.2-3.7-5.3-8.3-5.3-8.3s-6 6-6.3 8.1c-.3 2.3-.5 13.3-.5 13.3z" class="fil1 str0"/><path id="path2296" d="m1505.8 1022.1-4.3-233.8-25.2.9-3.4 234.7z" class="fil1 str0"/><path id="path2297" d="m1481.3 1024.4 2.2-243.7m-2.2 243.7z" class="fil4 str0"/><path id="path2298" d="m1476.9 1024.4.4-243.7m-.4 243.7z" class="fil4 str0"/><path id="path2299" d="m1494.6 1025.7 1.8-245.9m-1.8 246z" class="fil4 str0"/><path id="path2300" d="M1488 1025.3c-.5-2.2 1.7-245.9 1.7-245.9m-1.7 245.9z" class="fil4 str0"/><path id="path2301" d="m1502.2 1026.2.4-246.8m-.4 246.8z" class="fil4 str0"/><path id="path2302" d="M1511 1039.5v-14.8l-4.3-3.4h-31.2l-7.8 4.3 1.7 15.6z" class="fil1 str0"/><path id="path2303" d="m1504.8 753.9-4.6-7.4 9.3-8.1-37.5-.6 8.1 8.7-3.6 7.2z" class="fil1 str0"/><path id="path2304" d="m1501.7 777-7-7.2s15.2-14.3 17.3-14.3c2 0 3.3 3.3 5.6 3.1s3.5-1 3.5-3.5c0-2.4-2.3-3.5-5.6-3.3l-49-.6c-3.6.1-4.7 2.2-4.5 4 .1 1.7 2.5 3.4 4.6 3.3s2.7-3.5 5-3.4 11.7 13.4 11.7 14.4l-8 7.6z" class="fil1 str0"/><path id="path2305" d="M1507.4 784.5c6.9 7.6 11.4 12.3 11 24.2 0 12.5-17 31.5-29.7 43-13 11.5-35.6 19.8-35.6 30 0 9.9 2 11.1 4.4 14.3-2-2.3-12.7-9.5-12.7-26.2s14-34.7 29.9-44.4c16-9.7 35.4-23 35.4-29.9.4-6.1-2.7-11-2.7-11z" class="fil1 str0"/><path id="path2306" d="M1504 889.3c.3 6.8 0 12.5.6 18 .6 6.6-20.2 20.2-28.5 28.5s-29.2 17.4-30.6 29.9 11 24.1 13.8 28.8c-3.1-6.6 4-14.3 12.3-21 7.3-5.8 23-14.5 30.9-23.1s16.6-22.2 16.6-35.4-8.8-23.7-15-25.7z" class="fil1 str0"/><path id="path2307" d="m1510.2 782.5-8.8 6.4-25.4.8-8.5-7 8.5-5.7h25.7z" class="fil1 str0"/></g><g id="g1930"><path id="path1927" d="M1387.5 720.1c-18 2.9-22.2 25.8-22.2 25.8s7.9 1.5 7.9 8.7.7 15.7.7 15.7l15.8-17.2z" class="fil1 str0"/><path id="path1928" d="M1366.7 745.2c-6.5 6.5-9.3 14.4-9.3 14.4s-8.7-19.4-6.5-23.7 7.9-9.3 7.2-13.6c-.7-4.4-4.3-5-8.6-4.4-4.3.8-4.3 25.2-4.3 31.6s1.4 18 5 22.3 6.4 10.7 10 11.5c3.6.7 13.7-14.4 13.7-14.4s1.4-14.3-.8-18a18 18 0 0 0-6.4-5.7z" class="fil1 str0"/><path id="path1926" d="M1433.4 726.6c23.7 13.6 20.9 32.3 20.1 38.7s0 10.8 0 10.8 10 10 14.4 16.5l16.5 25.1-4.3 4.3s-18-12.9-25.1-21.5-38.8-60.3-38.8-60.3z" class="fil1 str0"/><path id="path1929" d="m1373.9 964.9-18-252.9m18 252.9z" class="fil4 str0"/><path id="path1905" d="M1436.1 960.7H1374c0-1.7 8.4-210 8.4-221.6 0-11.4-1.7-20.2.7-23 2.5-2.6 24.3-1.9 29.1 0 5 2 19.8 6.7 21 9.4 1.3 2.6-2.9 18.8-2.9 24.4s6.4 20.8 5.9 28.6 6.4 88.4 6.4 93.8c0 6.6-5.5-3.4-8-.2-2.9 3.8 8.7 85.4 1.5 88.6z" class="fil1 str0"/><g id="g1911"><path id="path1904" d="M1400.3 697.6s-.8 15.4-.8 19.5c0 4.2 6.9 11.3 11.3 12 4.4.8 9-4.1 8.5-11-.5-6.8-2.7-5.8-2.7-14 0-8-1.4-13.9-1.4-13.9z" class="fil1 str0"/><path id="path1899" d="M1397 679.2a80 80 0 0 0-.2 20.8c.8 2.7.8 10 5.2 10.8 4.4.7 11.7-8.8 14-13a38 38 0 0 0 3-9.3l-11.7-17z" class="fil1 str0"/><path id="path1902" d="m1397.6 703.7 6.6-.5m-6.6.5z" class="fil1 str0"/><path id="path1903" d="M1404.4 688.8h5.1m-5 0z" class="fil1 str0"/><path id="path1898" d="M1395.9 679.5c-2.2-4.7.7-13.7 9-13.5 8.3.3 17.4 12.3 17.4 18.4s-1.7 11.7-3.2 11.7-8.3-19.3-14-19.5c-5.6-.3-5 3.1-9.2 2.9z" class="fil1 str0"/></g><path id="path1906" d="M1411.8 751.4c-12.5 24.4-22 33-26.5 33.2s-10-.5-10-.5l2.5 50.8 35.7 1m-1.8-84.5z" class="fil1 str0"/><path id="path1907" d="M1422.5 752.1a136 136 0 0 1-49.9 73.8l4.7 75.4 37-36.7m8.2-112.5z" class="fil1 str0"/><path id="path1908" d="M1416.4 788.5c-10 78.3-44.5 65.8-44.5 65.8l1.9 69.4c28.8-7 31-29.9 31-29.9s10 2.9 17.2-4.3.7-30.9 2.8-41.6c2.2-10.8 2.9-22.3 2.9-22.3m-11.3-37z" class="fil1 str0"/><path id="path1919" d="M1424.8 794c-2.8 12.2-5.7 38-5.7 38m5.7-38z" class="fil4 str0"/><path id="path1920" d="M1384.6 833.5c12.2-5.7 27.3-44.5 27.3-44.5m-27.3 44.5z" class="fil4 str0"/><path id="path1921" d="M1415.5 862.2c-1.4 8 .7 18.7.7 18.7m-.7-18.7z" class="fil4 str0"/><path id="path1922" d="M1416.2 913.9c.7-18-1.4-20.1-1.4-20.1m1.4 20z" class="fil4 str0"/><path id="path1923" d="M1421.2 743c4.3-7.1 5-20 5-20m-5 20z" class="fil4 str0"/><path id="path1925" d="M1437 871.5a95 95 0 0 1-12.2-6.4m12.2 6.4z" class="fil4 str0"/></g><g id="g1775"><path id="path1773" d="M1336.1 1015.2s11.1-9 14-13.2c2.7-4.2 10.3-17.4 10.3-17.4l-19.4-20s-14.6 18-14.6 21.4c0 3.5 9.7 29.2 9.7 29.2z" class="fil1 str0"/><path id="path1774" d="M1333.3 917.3s24.3-20.1 26.4-25 2.8-22.2 2.8-22.2l-11.8-2.8s-4.9 4.2-11.1 7.6c-6.3 3.5-15.3 4.2-15.3 4.2z" class="fil1 str0"/><path id="path1764" d="m1316.5 743 .5-11.6c.1-3.6 5.2-8.3 5.2-8.3s6.1 6 6.4 8.2.5 13.2.5 13.2z" class="fil1 str0"/><path id="path1760" d="m1307.1 1023.8 4.3-233.9 25.2.9 3.4 234.7z" class="fil1 str0"/><path id="path1765" d="m1331.6 1026-2.2-243.6m2.2 243.6z" class="fil4 str0"/><path id="path1769" d="m1336 1026-.4-243.6m.4 243.6z" class="fil4 str0"/><path id="path1767" d="m1318.3 1027.4-1.8-246m1.8 246z" class="fil4 str0"/><path id="path1766" d="M1325 1026.9c.4-2.2-1.8-245.9-1.8-245.9m1.7 245.9z" class="fil4 str0"/><path id="path1768" d="m1310.7 1027.8-.4-246.8m.4 246.8z" class="fil4 str0"/><path id="path1759" d="M1301.9 1041.1v-14.7l4.4-3.5h31.1l7.8 4.3-1.7 15.6z" class="fil1 str0"/><path id="path1763" d="m1308.1 755.5 4.6-7.3-9.2-8.2 37.4-.6-8.1 8.8 3.6 7.1z" class="fil1 str0"/><path id="path1762" d="m1311.3 778.1 6.8-6.7s-15.1-14.3-17.2-14.3-3.3 3.3-5.6 3.2c-2.2-.2-3.5-1.1-3.5-3.5s2.3-3.5 5.6-3.4l49-.6c3.6.1 4.7 2.2 4.5 4-.1 1.7-2.5 3.5-4.6 3.3s-2.7-3.5-5-3.3c-2.2.1-11.7 13.3-11.7 14.3l8 7.7z" class="fil1 str0"/><path id="path1770" d="M1306 786.4c-6.9 8.4-11.7 12.2-11.5 24 0 12.5 17 31.4 29.7 42.9 12.9 11.6 35.6 19.8 35.6 30 0 9.9-2 11.2-4.4 14.3 2-2.3 12.7-9.5 12.7-26.1s-14-34.8-29.9-44.5c-16-9.7-35.4-22.9-35.4-29.8a20 20 0 0 1 3.1-10.8z" class="fil1 str0"/><path id="path1772" d="M1308.8 890.9c-.2 6.8 0 12.5-.5 18-.6 6.6 20.2 20.2 28.5 28.5s29.2 17.4 30.6 29.9-11 24.1-13.8 28.9c3.1-6.6-4-14.3-12.3-21-7.3-5.9-23-14.6-30.9-23.2s-16.6-22.2-16.6-35.4 8.8-23.6 15-25.7z" class="fil1 str0"/><path id="path1761" d="m1302.7 784.1 8.8 6.4 25.4.8 8.5-7-8.5-5.7h-25.7z" class="fil1 str0"/></g><path id="text1791" d="m1360 860 1 .8-3.2 3.6 6.8-.4 1.4 1.2-5.7.3-.7 7.2-1.3-1.2.6-6-2.1.1-2.3 2.6-1-.9zm-4-4a4 4 0 0 1 1.5 2.7q0 1.5-.6 2.5l-1-.9q.5-.9.3-1.7 0-.9-1-1.7a3 3 0 0 0-2.4-.8q-1.4.2-2.8 1.8-1.2 1.3-1.2 2.6-.1 1.4 1 2.5 1.2.9 2.5.6.7-.2 1.5-.8l1 .9q-1.2 1-2.6 1.2-1.8 0-3.2-1.2a4 4 0 0 1-1.5-2.7q-.2-2 1.6-4.2 1.4-1.6 3.3-1.9 2-.3 3.6 1.2m-8-7.1q2 1.8 1.8 3.9 0 1.5-1.5 3.1-1.4 1.7-3.2 2-2.2.5-4-1.2a5 5 0 0 1-1.7-3.5q0-1.8 1.6-3.5 1.4-1.5 3-2 2.2-.5 4 1.2m-6 7q1.3 1.1 2.8.8 1.5-.5 2.5-1.7 1.2-1.2 1.2-2.7 0-1.4-1.2-2.4t-2.6-.9-2.7 1.7q-1.2 1.2-1.3 2.6 0 1.5 1.3 2.6m1.7-10.4-.7.9-2.5-2.2-5.8 6.5-1-1 5.8-6.4-2.5-2.2.8-1zm-16-5.1q-.5.6-.5 1.2-.2 1.2 1 2.3l1.2.8q1.2.5 2-.3.5-.6.3-1.2l-.8-1.5-.8-1.1-1-1.8a2 2 0 0 1 .6-2q.8-1 2-1 1.4 0 2.6 1 1.2 1.1 1.5 2.4t-.8 2.5l-1-.8q.5-.7.6-1.2 0-1-1-2-1-.7-1.7-.7t-1.1.5-.3 1.2l1 1.6.8 1.1.8 1.5q.3 1.2-.7 2.2-1 1.2-2.4 1-1.4-.3-2.6-1.4-1.4-1.2-1.5-2.6t1-2.6zm-3-11.6 5.4 4.8-.8.9-4.4-4-2 2.3 4 3.6-.7.9-4-3.6-2.3 2.5 4.5 4-.8.8-5.5-4.8zm-6.4-5.7-3.5 8.2 7.7-4.5 1.1 1-9.2 5-1.1-.9 3.9-9.8zm-3.2-2.8 1 .8-6.5 7.4-1-.9zm-5.9-5.3 1 .9-5.7 6.5 3.7 3.3-.8 1-4.7-4.3z" class="fil3"/><path id="text1794" d="m1340.6 951.5 1.2 1-1.6 9.3 5.3-6 1 .9-6.6 7.4-1-1 1.4-9.4-5.3 6-1-.8zm-2.6-2.3 1 .8-6.5 7.4-1-.9zm-7.2 1.4 1.7-4.3-4 2.2zm2.2-5.8 1.1 1-3.8 9.8-1.1-1 1.2-2.9-3-2.5-2.7 1.5-1-1zm-9.1-2q.8.7 1.4.7.7.1 1.3-.6t.4-1.6q-.2-.5-.7-.9l-2.5-2.1-2.2 2.5zm-.3-6.3 3.4 3q.9.8 1.2 1.5.7 1.5-.5 2.7-.6.6-1.2.8-.8.3-1.4 0 .3.6.2 1 0 .6-.5 1.2l-.9 1-.5.7q-.1.5 0 .8l-.2.2-1.2-1.1.1-.4.5-.6 1-1.3q.6-.8.3-1.4l-.7-1-2.3-2-2.8 3.2-1-.9zm-4.7-4.5a5 5 0 0 1 1.5 2q.6 1.5-.5 3.3l-1-1q.6-.9.3-1.8t-1-1.6a3 3 0 0 0-2.5-.8q-1.4.2-2.7 1.7-1.2 1.3-1.4 2.7 0 1.3 1.2 2.5 1 .9 2.2.8t2.3-1.2l-2.3-2 .7-1 3.3 3-3.5 4-.7-.7.6-1.1h-1.6q-1-.3-2-1.2a4 4 0 0 1-1.5-2.8q0-2 1.6-3.9t3.6-2 3.4 1.1m-.1-.1" class="fil3"/><path id="text1797" d="M1490.2 832.6q.6.7 1.2 1 1.2.4 2.7-.8l1-1q.7-1.2 0-2-.5-.8-1.1-.7-.7 0-1.8.5l-1.3.6-2 .7q-1.2 0-2-1a3 3 0 0 1-.7-2.5 4 4 0 0 1 1.7-2.4q1.3-1 2.7-1 1.5-.2 2.5 1.3l-1 .8q-.6-.6-1.2-.8-1-.2-2.3.7-1 .7-1.1 1.6 0 .7.3 1.3.5.6 1.2.5.5 0 1.9-.7l1.4-.7q1-.4 1.7-.4 1.3 0 2.1 1 1.1 1.5.5 2.9-.5 1.4-1.9 2.4-1.5 1.2-3 1-1.5 0-2.6-1.5zm-12.8.8 6.1-4.7.8 1-5 3.9 2 2.5 4.6-3.5.7 1-4.6 3.5 2.2 2.9 5-4 .8 1-6.2 4.8zm-8.6 6.5 1.4-1 9.4 3.6-5.2-6.9 1.1-.8 6.5 8.4-1.3 1-9.6-3.5 5.3 6.8-1.1.8zm-3 2.3 1.2-.9 6.4 8.5-1.1.8zm-10.1 7.7 1.6-1.2 7.9 5.3-3-9 1.6-1.2 6.4 8.4-1 .8-3.9-5-1.6-2.1 3 9-1.1.8-7.9-5.3.2.3 1.5 1.9 3.8 5-1 .8z" class="fil3"/><path id="text1800" d="m1467.7 951.3 1.2-1 5.7 7.5 4.2-3.2.8 1-5.4 4zm-3 2.2 1.2-.8 6.4 8.4-1.1.9zm-5.9 4.2q2.3-1.7 4.4-1 1.7.4 3 2.1 1.5 2 1.5 4 0 2.3-2.1 3.8a5 5 0 0 1-4 1.1 6 6 0 0 1-3.5-2.4 6 6 0 0 1-1.3-3.6q-.1-2.4 2-4m6.1 7.8q1.5-1.2 1.4-2.7-.2-1.7-1.2-3-1.2-1.5-2.6-1.8t-2.9.7q-1.2 1-1.4 2.5t1.2 3.3a5 5 0 0 0 2.5 1.8q1.5.4 3-.8m-6-7.8" class="fil3"/><g id="g1723"><path id="path1627" d="m1212.2 1036 397 .6-42.3 62.3s-160.6 58.9-167.7 57.7-168.8-58.8-168.8-58.8z" class="fil1 str0"/><path id="path1634" d="M1362.2 971.3v88.8l8.8-2.3v-87.7z" class="fil1 str0"/><path id="path1635" d="m1442.2 970.1 1.7 90h8.9l-1.2-90z" class="fil1 str0"/><path id="path1630" d="m1354 1058.4.5 15.3h104.2l-.6-15.3z" class="fil1 str0"/><path id="path1629" d="M1348.7 1067.2v14.1l114.1.6-.6-14.7z" class="fil1 str0"/><g id="g1700"><path id="path1653" d="M1490.3 1105.8v25.4l-19.2-1.7.2-30.3z" class="fil1 str0"/><path id="path1652" d="m1339.5 1101.1-.7 26.9-17-8.9 1.9-16.5z" class="fil1 str0"/><path id="path1651" d="M1322.5 1112.5c-1-13 4-19.7 7.9-19.7s142.1-.5 150 0 9.9 8 9.9 12.3v14s-.8-7.6-17-8.6c-16.3-1-6.4 3.4-68.3 3-61.8-.5-60.3-3-69.7-3.7s-11.8.2-12.8 2.7z" class="fil1 str0"/><path id="text1660" d="M1471.7 1095.8q2.3 0 3.4 1.9.8 1.5.8 4t-.8 4q-1 2.4-3.4 2.4-2.2 0-3.3-1.9-.8-1.5-.8-4.2 0-2 .5-3.5 1-2.7 3.6-2.7m0 11q1.1 0 1.8-1.1.7-1 .7-3.9 0-2-.5-3.4-.5-1.2-2-1.3-1.2 0-1.9 1.3-.6 1.2-.6 3.7a9 9 0 0 0 .4 3q.6 1.5 2 1.6" class="fil3"/><path id="path1677" d="M1459.8 1104.9q0 1.2 1 1.7.3.3 1 .2 1 0 1.8-.9t1-3.6q-.5.8-1.2 1.1l-1.6.3q-1.6 0-2.7-1a4 4 0 0 1-1-2.9q0-1.5 1-2.8t3-1.3q2.6 0 3.5 2.4.6 1.4.6 3.3 0 2.1-.7 3.9-1.1 2.8-3.7 2.8-1.7 0-2.7-1-.9-.8-.9-2.2zm2.3-2.5q1 0 1.7-.6t.7-2-.6-2-1.7-.7q-1.2 0-1.8.8-.7.6-.7 2 0 1 .6 1.8.6.7 1.8.7" class="fil3"/><path id="path1675" d="M1452.6 1100.8q1 0 1.5-.6t.6-1.3-.5-1.2-1.7-.6q-1 0-1.5.6a2 2 0 0 0-.5 1.3q0 .8.6 1.3t1.5.5m0 6q1.2 0 1.8-.6t.7-1.7q0-1.2-.7-1.8t-1.8-.6-1.8.6-.7 1.7.6 1.7 2 .6m-2.2-5.3-1-.7q-.6-.6-.6-1.7 0-1.5 1-2.3.9-1 2.7-1 1.7 0 2.7 1 1 .8 1 2t-.6 1.9l-1 .7q.8.4 1.2.8.8.9.8 2.2 0 1.6-1 2.7a4 4 0 0 1-3 1.1q-1.8 0-3-1t-1.2-2.7q0-1 .5-1.8t1.5-1.2" class="fil3"/><path id="path1672" d="M1440 1099.3v-1.2q1.5-.2 2.3-.5.6-.5 1-1.8h1.1v12h-1.6v-8.5z" class="fil3"/><path id="path1671" d="M1368.4 1104.6q0 1.2 1 1.7.4.3 1 .2 1.1 0 1.9-.9t1-3.6q-.5.8-1.2 1.1l-1.6.3q-1.7 0-2.8-1a4 4 0 0 1-1-2.8q0-1.6 1-3 1-1.2 3-1.2 2.6 0 3.6 2.4.6 1.3.6 3.3 0 2.1-.7 3.9-1.1 2.8-3.7 2.8-1.7 0-2.7-1-1-.8-1-2.2zm2.3-2.5q.9 0 1.6-.6t.8-2-.7-2q-.6-.7-1.7-.7-1 0-1.7.8-.7.6-.7 2 0 1 .6 1.8.6.7 1.8.7" class="fil3"/><path id="path1669" d="M1361.6 1095.4q2 0 2.8 1t.8 2.2h-1.5q0-.8-.4-1.1-.6-.8-1.7-.8t-2 1.2-.8 3.3a3 3 0 0 1 2.9-1.4q1.5 0 2.6 1t1.2 2.8q0 1.6-1.1 3-1 1.1-3 1.2-1.7 0-3-1.3-1.2-1.3-1.2-4.3 0-2.3.6-3.8 1-3 3.8-3m-.1 11q1.2 0 1.8-.8.6-.7.6-1.9 0-1-.6-1.7-.5-.9-1.9-.9-1 0-1.7.7t-.7 2q0 1 .6 1.9.7.7 1.9.7" class="fil3"/><path id="path1667" d="M1351.7 1100.5q1 0 1.5-.6t.6-1.3-.5-1.2-1.7-.6q-1 0-1.6.6a2 2 0 0 0-.4 1.3q0 .8.6 1.3t1.5.5m0 6q1.1 0 1.8-.6t.7-1.7-.7-1.8-1.8-.6q-1.2 0-1.8.6t-.7 1.7q0 1 .6 1.7t2 .6m-2.2-5.3-1-.7q-.6-.6-.6-1.7 0-1.5 1-2.3.9-1 2.7-1 1.7 0 2.7 1 1 .8 1 2t-.6 1.9l-1 .7q.8.4 1.2.8.8.9.8 2.2 0 1.6-1 2.7a4 4 0 0 1-3 1.1q-1.8 0-3-1t-1.3-2.7q0-1 .6-1.8t1.5-1.2" class="fil3"/><path id="path1664" d="M1339 1099v-1.2q1.8-.2 2.4-.5.6-.5 1-1.8h1.1v12h-1.6v-8.6z" class="fil3"/></g><path id="path1628" d="m1244 1076.6 325.2 1.8-5.3 12.3-305.2.6z" class="fil1 str0"/><path id="path1631" d="m1356.3 967.8.6 6.5h20.6l.6-7.1z" class="fil1 str0"/><path id="path1632" d="m1437.5 967.2.6 7.1h17.6l.6-7.1z" class="fil1 str0"/><path id="path1633" d="m1362.2 957.8-.6 9.4h88.2v-8.8z" class="fil1 str0"/><path id="path1638" d="M1416.9 1006c-1.2-6.5-4.1-35.3-14.1-35.9s-13 7.7-13 7.7 14.1 1.7 13 7.6c-1.2 6-7 20.6-10 22.4s18.8-1.2 24-1.8z" class="fil1 str0"/><path id="path1639" d="m1396.9 1003.1-2.4 40 28.3.6-1.2-38.9z" class="fil1 str0"/><path id="path1637" d="M1371 1033.5s-.5-24.7 1.2-31.6c1.2-7 5.3-11.8 12.3-11.2s19.4 13.5 19.4 13.5 18.9-17 26-16.4a17 17 0 0 1 13 14.6l.5 31.4s-14.6-16.6-19.5-18.4c-4-1.2-12.3-2.3-12.3-2.3l-1.1 32-6.6-.3s-.5-15.3-1.1-21.1c-.6-6-3-11.2-3-11.2s-10.6 5.3-14 9.4a268 268 0 0 1-14.8 11.6z" class="fil1 str0"/><g id="g1712"><path id="path1640" d="m1371.6 1035.8 70.6.2v29.4c-.6 26-35.7 62.4-35.7 62.4s-35.5-33.5-35.5-63.6c-.6-30 .6-28.4.6-28.4z" class="fil1 str0"/><path id="path1641" d="M1381.5 1069.9v26.4l5 7.9v-34.3z" class="fil3"/><path id="path1642" d="m1392.5 1069.9.1 42.4 4.9 5.9v-48.3z" class="fil3"/><path id="path1643" d="M1403.5 1069.9v54.9l3 3 3-3.3v-54.6z" class="fil3"/><path id="path1644" d="M1415.5 1069.9v47.6l5-6.2v-41.4z" class="fil3"/><path id="path1645" d="M1426.5 1069.9v33l5-7.7v-25.3z" class="fil3"/><path id="path1646" d="M1371.5 1069.9h5v15.8z" class="fil3"/><path id="path1647" d="M1436.5 1069.9v15.9l5.4-15.9z" class="fil3"/><path id="path1649" d="m1371 1035.3 71.2.7v28l-71.2.3z" class="fil1 str0"/></g><path id="_132303184" d="m1406.6 1038.5 3 9h9.5l-7.7 5.7 3 9-7.8-5.5-7.7 5.6 3-9.1-7.8-5.6h9.6zm-1.4 4.5" class="fil3"/></g><g id="g1566"><path id="path1547" d="m1585 1020.6 2.5-95.8h6.6l-.9 96.7z" class="fil1 str0"/><path id="path1548" d="M1594.9 876.9v26.4c0 7.4-11.6 18.2-10.7 24 .8 5.8 8.2 5 10.7 3.3s15.7-24 15.7-37.2 1.6-33-1.7-33.9-14.8 12.4-14.8 12.4z" class="fil1 str0"/><path id="path1543" d="M1541.2 1004.1s-1.7 31.4-1.7 39.7c0 8.2-.8 17.3-6.6 22.3s-10.7 3.3-12.4 6.6c-1.6 3.3.9 5.8.9 5.8l37.1-.9s-1.6-29.7-.8-40.5c.8-10.7 8.3-27.2 4.1-30.5-4-3.3-17.3-3.3-20.6-2.5z" class="fil1 str0"/><path id="path1544" d="M1502.4 995s19.8 15.7 19 21.5-10 12.4-6.6 15.7c3.3 3.3 5.7 2.5 5.7 2.5l27.3-24.8-31.4-25.6z" class="fil1 str0"/><path id="path1546" d="M1566.8 1007.4s8.3 11.6 19 11.6 24.8-29.8 24.8-29.8-5 40.5-24 39.7-19.8-13.2-19.8-21.5z" class="fil1 str0"/><path id="path1545" d="M1563.5 907.4c5-4 6.6-28 6.6-28l7.4-14s12.4 14 18.2 13.1c5.8-.8 14-.8 14-5.8s2.5-12.3-1.6-16.5a378 378 0 0 0-29.7-24c-4.2-2.4-47.1-7.4-50.4-7.4s-16.5 8.3-18.2 15.7c-1.7 7.5-5 32.2-5 38.9s.8 16.6.8 16.6l12.5-8.4 4 11.6z" class="fil1 str0"/><path id="path1549" d="M1519.7 828.1c9.1 10 11.6 35.6 11.6 35.6s2.5-14 9-19c6.7-5 22.4-5.8 22.4-13.3 0-7.4-17.4-9.9-22.3-9.9s-13.3.8-20.7 6.6z" class="fil1 str0"/><path id="path1550" d="M1531.3 824c0 8.3 3.3 11.6 7.4 12.4s14-4.1 13.2-8.3c-.8-4.1-20.6-4.1-20.6-4.1z" class="fil1 str0"/><path id="path1551" d="M1534.6 823.2s0 9.9 5 9c4.9-.8 9-10.7 9-10.7z" class="fil1 str0"/><path id="path1554" d="M1531.7 784c-.3 5.8-1 12.5-1.9 13.7a28 28 0 0 0-4.3 8.6c-.3 2.5 2.8 2.2 2.8 2.2s-.6 11.3-1 13.5c-.2 2.1 5 .3 7.1 4 2.2 3.6 2.2 8.8 3.4 8 1.2-1 5.8-5.6 8.3-8.4 2.4-2.7 6.1-.6 7-4.3s1.9-31.2 1.9-31.2z" class="fil1 str0"/><path id="path1542" d="M1551.1 1005c-9 .8-12.4-.9-13.2-5-.8-4.2-.8-30.6-2.5-39.7-1.6-9-4.1-13.2-4.1-13.2s-21.5 15.7-21.5 23.1 6.6 13.3 6.6 13.3l-13.2 11.5s-27.3-15.7-27.3-24.8c0-9 28.1-39.6 33-46.2 5-6.6 6.7-25.6 11.6-26.5 5-.8 35.6 1.7 40.5 5.8 5 4.1 15.7 22.3 14.9 33.9s-5 9.9-5.8 14c-.8 4.2 0 7.5-.8 13.2-.8 5.8-5 1.7-5 6.7s1.7 26.4-.8 30.5-4.1 3.3-12.4 3.3z" class="fil1 str0"/><path id="path1552" d="M1535.4 775.3c-5.8 5-9 6.6-7.4 9.9s14.8 4.1 16.5 8.2c1.6 4.2 0 10.8 0 10.8l6.6-1.7v19s16.5-13.2 14.9-26.4c-1.7-13.2-18.2-14.9-23.2-15.7s-5-1.7-7.4-4.1z" class="fil1 str0"/><path id="path1553" d="M1504.7 897.4c.3 4.3 1.2 27-.3 30.4-1.6 3.3-4.3 8.8-.6 13.1s8 6.2 9.8 2.8-.6-19 1.5-28c2.2-8.8 2.5-24.7 1-26.9-1.6-2.1-10.8-1.2-11.4 8.6z" class="fil1 str0"/><path id="path1555" d="M1531.4 947c-5-9.7-4.3-19.6-4.3-19.6m4.3 19.7z" class="fil4 str0"/><path id="path1556" d="m1518.5 889.1.3-32.8m-.3 32.8z" class="fil4 str0"/><path id="path1557" d="M1570.3 879.6s-4.9-3.7-6.4-5.5l-3.4-4.6m9.8 10.1z" class="fil4 str0"/><path id="path1558" d="M1589.3 876.2c-.3-15.6 19.6-18.7 19.6-18.7m-19.6 18.7z" class="fil4 str0"/><path id="path1559" d="m1527.7 814 4.9.3m-5-.3z" class="fil4 str0"/><path id="path1560" d="m1530.4 795 7 6.1m-7-6.1z" class="fil4 str0"/></g><g id="g1607"><path id="path1603" d="M1251.3 800.8s-2.6-9.7-.4-11.7c2.3-1.9 16.8-12.3 21-12 4.3.4 12.3 12.4 12.3 12.4z" class="fil1 str0"/><path id="path1588" d="M1259.5 831.3s-53.5 39.2-54 49.3c-.7 10.1 23.7 39.3 23.7 39.3l10.1-9.5s-1.2-7.2-3.6-13.7c-2.3-6.5-7.7-13.7-7.7-13.7s1.2.6 7.1-1.8c6-2.3 10.1-5.3 10.1-5.3s-1.7 11.9 1.2 18.4c3 6.6 12.5 22.6 12.5 22.6l35-2.4s1.3-46.3.7-57-13.7-31-13.7-31z" class="fil1 str0"/><path id="path1595" d="M1267.8 1008.5s14.3 10 19.7 14.8 7 7.2 7 7.2l.7 5.4h-14.9l-15.4-18z" class="fil1 str0"/><path id="path1592" d="M1261 830.3c-.7 2.6 14.6 11.7 18.7 16.5 4.2 4.7 13.1 11.2 13.1 11.2s.6-7.7-4.8-17.8-3-11.7-5.4-12.3-24-1-21.6 2.4z" class="fil1 str0"/><path id="path1590" d="M1256 923.4s-9.6 39.3-10.8 70.8a265 265 0 0 0 6.6 63l22.6-3v-37.4s42.2-43.4 42.2-50c0-6.5-23.2-38-22-42.2 1.2-4.1-.6-10-.6-10z" class="fil1 str0"/><path id="path1591" d="M1275 990.6s6-19 7.9-24.3c1.7-5.3 2.3-9.5 2.3-9.5s7 5.9 6.4 9.5-8.9-1.2-16.6 24.3z" class="fil1 str0"/><path id="path1605" d="M1241.2 1004.6s-.6-17.8-2-23c-1.2-5.1-6-20-6-31.4s2.2-19 9.3-28.1c7.1-9 14.6-12 14.6-12s7 0 17.8-.3c10.6-.3 20.3-1 20.3-1l-.3 11.4s-13.6 3.8-22.3 3.8-18.1-1.9-18.1-1.9-14.9 14.2-14.3 27.8c.7 13.6 4.6 33.3 4.3 38.8-.4 5.5-3.3 15.9-3.3 15.9z" class="fil3 str0"/><path id="path1593" d="M1258.7 831.7s-1-14 .2-20 6.6-20.2 6.6-20.2l20.8-.6-.6 28-4.2-.7 1.8 9.5s-7.1 3.6-13.7 4.2-11-.2-11-.2z" class="fil1 str0"/><path id="path1586" d="M1262.7 810c-13 3-19.8 8.8-24 4.6-4.2-4.1 4.8-16.6 23.8-24.3 19-7.8 36.8-3.6 38 0 1.2 3.5-8.3 10-13 10.7-4.8.6-13.7 0-17.3 2.4-3.6 2.3-7.5 6.7-7.5 6.7z" class="fil1 str0"/><path id="path1587" d="M1258.4 824.9c-7.4.3-8.8-7-5.4-12 3.5-5.4 10-14.9 17.8-17.3 7.7-2.4 14.3 0 14.9 4.2 1.4 4.4.2 7.5.2 7.5s-11-8.6-15.7-4c-4.1 4.8-4.7 13.7-8.3 17.9-1.2 1.7-1.5 3.6-3.5 3.7z" class="fil1 str0"/><path id="path1594" d="M1251.2 911.6A13 13 0 0 1 1263 899c2.2 0 6 11.3 6 19s-4.8 23.2-9 23.8-3-20.2-3-20.2h-4.7z" class="fil1 str0"/><path id="path1596" d="m1252.4 1056.6-.6 21.4 46.4-1.2s1.2-3.5-1.8-6.5-16-4.2-18.5-8.3c-2.3-4.2-3-6.6-3-6.6z" class="fil1 str0"/><path id="path1598" d="M1272.6 831.2c8.7 5.2 19 20.7 19.7 23.3q.9 3.8.7 3.6m-20.4-26.9z" class="fil4 str0"/><path id="path1599" d="M1226 916.3c4.2-9 12.3-8.8 12.3-8.8s11.3 5.9 11 8.8-9-.3-9.7 1.6 4.8 8 2 11c-3 3-12.7-5.8-15.6-12.6z" class="fil1 str0"/><path id="path1601" d="m1282.4 823-3.7-.5m4.9.6z" class="fil4 str0"/><path id="path1602" d="M1274.5 1016.9c.3-9.3-1.1-19.2.7-27.8m-.7 27.8z" class="fil4 str0"/><path id="path1604" d="M1281.7 809.7c0-1.7-1.5-3-3.3-3a3 3 0 0 0-3.2 3c0 1.7 1.4 3 3.2 3s3.3-1.3 3.3-3" class="fil3"/><path id="path1606" d="M1285.2 956.7c2-12 .7-24.2.7-24.2m-.7 24.2z" class="fil4 str0"/></g><path id="path919" d="M1704.6 891a298 298 0 0 1-298.2 297.8A298 298 0 0 1 1108 891a298 298 0 0 1 298.3-297.8A298 298 0 0 1 1704.6 891zm-59.3-.9c0 132.4-107 239.8-239 239.8a239.5 239.5 0 0 1-238.9-239.8c0-132.4 107-239.8 239-239.8s238.9 107.4 238.9 239.8z" class="fil1 str0"/><path id="text1951" d="M1482.9 612.6q4.6 1.8 7.4 4.8 4 4.4 2.7 11.4l-4.4-1.7q.4-4-1.5-6.5-2-2.5-5.8-4-4.6-1.8-9 .6-4.5 2.2-7 9.1-2.2 6-1 10.6 1.3 4.7 7.2 6.9 4.5 1.5 8.4.1 3.9-1.5 6.1-7.3l-10.4-3.9 1.4-3.7 14.6 5.4-6.6 17.7-2.8-1 .4-4.7q-3.2 1.7-5.3 2-3.6.5-8.2-1-5.8-2.2-8.7-7.6-3-6.5.2-15 3-8.3 9.4-11.5 6-3.1 12.9-.7" class="fil3"/><path id="path2004" d="m1249 652.1 4.9-2.7 29.5 16.7-13.8-25.2 4.1-2.2 16.9 31.1-4.8 2.6-29.6-16.5 13.7 25.2-4 2.1z" class="fil3"/><path id="path2002" d="m1222.5 672.7 3.6-3.2 23.8 26.2-3.6 3.3z" class="fil3"/><path id="path2000" d="m1174.2 721.4 4.2-5.5 29.9 10.4-17.4-26.4 4.2-5.3 28 21.7-2.9 3.6-16.5-12.8-7-5.6 17.4 26.3-3 3.8-29.8-10.3.9.6 6.3 4.8 16.5 12.8-2.9 3.6z" class="fil3"/><path id="path1999" d="M1151.4 757.9q3.8-8.6 11.1-10.3 5.8-1.3 12.5 1.7a21 21 0 0 1 10.4 9 16 16 0 0 1 .2 14.8q-3.3 7.5-10.2 9.6-6.4 1.6-13.7-1.5a21 21 0 0 1-9.8-8.3q-4.2-6.8-.5-15m30.5 13q2.6-5.9-.4-10.3t-8.5-6.8q-5.7-2.5-10.5-1-4.8 1.3-7 6.5a12 12 0 0 0-.3 9.8q2 4.7 8.8 7.6 5.4 2.4 10.3 1.4 5-1.2 7.6-7.3" class="fil3"/><path id="path1996" d="m1130.9 822.2 1.3-5.4 18.9-6-14.2-13.8 1.3-5.5 17.5 17.9 13.9 3.3-1.1 4.7-13.9-3.3z" class="fil3"/><path id="path1994" d="m1120.9 881.1 29.1-5.3-28.4-9.4.2-5.2 29.2-6.6-28.5-8.1.3-5.2 34.9 11-.2 5-29.8 6.8 29 9.6-.3 5-35.8 7.6z" class="fil3"/><path id="path1993" d="m1134.1 975.9-7-23.6 4.2-1.2 5.6 18.9 10.3-3-4.9-16.7 4-1.2 5 16.7 15.4-4.6 1.4 4.6z" class="fil3"/><path id="path1992" d="M1150 1017q-5.7-7.5-3.7-14.8 1.5-5.5 7.4-10a21 21 0 0 1 13-4.9 16 16 0 0 1 13 7q5 6.5 3.6 13.4-1.6 6.5-8 11.4a21 21 0 0 1-11.9 4.6q-8 .4-13.4-6.8m26-20.5q-4-5.1-9.2-4.5-5.4.5-10 4.1a15 15 0 0 0-6 8.7q-1.1 5 2.4 9.4 3.3 4.4 8.4 4.8 5 .5 11-4 4.6-3.6 6-8.4t-2.6-10.1" class="fil3"/><path id="path1989" d="m1207 1094.9-17-19.5 3.3-2.9 13.9 16 8.1-7.1-12.8-14.7 3.1-2.7 12.8 14.7 9.1-7.8-14.2-16.3 3.2-2.7 17.2 19.7z" class="fil3"/><path id="path1987" d="m1222 1109.9 2.4-3.5 9.8 6.7 17.6-25.8 4 2.8-17.5 25.8 9.8 6.7-2.3 3.5z" class="fil3"/><path id="path1986" d="m1273.5 1119.6-2.8 16.4 12.5-11zm-3.1 22.2-4.8-2.6 5.7-37.3 4.7 2.5-2 11 12.3 6.8 8.5-7.5 4.3 2.4z" class="fil3"/><path id="path1983" d="m1297.7 1156.2 1.4-4 11.3 3.8 10.1-29.5 4.6 1.5-10.1 29.6 11.3 3.8-1.3 4z" class="fil3"/><path id="path1982" d="M1362 1149.3q.3-3-.6-5-1.8-3.9-7.8-4.8a15 15 0 0 0-5 0q-4.4.7-5 4.6-.6 2.8 1 4.3 1.8 1.5 5.4 3l4.6 1.8q4.5 1.8 6.2 3.4 3 2.8 2.3 7-.7 4.8-4.5 7.3a13 13 0 0 1-9.7 1.5q-5.5-.8-9-4.1-3.3-3.3-2.5-9.1l4.5.7q0 2.9.8 4.6 1.8 3 7 3.9 4 .6 6.3-.8 2.1-1.5 2.4-3.8a4 4 0 0 0-1.5-4.1q-1.3-1-6-3l-4.8-1.9q-3.5-1.4-5-3-3-3-2.3-7.7 1-5.8 5.6-7.6 4.6-2 10.2-1 6.5 1 9.7 5 3 3.9 2.2 9.6z" class="fil3"/><path id="path1980" d="m1463.3 1171-25.4 4.6-.8-4.3 20.9-3.7-1.9-10.6-19.3 3.4-.7-4 19.2-3.4-2.1-11.9-21.1 3.8-.8-4.1 25.8-4.6z" class="fil3"/><path id="path1978" d="m1520.1 1153.9-4.6 1.5-4.6-13.9-17.5 5.8 4.6 13.9-4.6 1.5-11.1-33.6 4.6-1.5 5.2 15.7 17.5-5.8-5.2-15.7 4.6-1.5z" class="fil3"/><path id="path1977" d="m1545.1 1141.1-2.3-3.5 10.2-6.4-16.7-26.4 4.2-2.6 16.6 26.4 10.1-6.3 2.2 3.5z" class="fil3"/><path id="path1976" d="m1629.9 1071.1-16.3 18.4-3.3-2.9 13.2-14.8-8.1-7.1-11.5 13-3.2-2.8 11.5-13-12-10.7 3.2-3.6z" class="fil3"/><path id="path1975" d="M1653.2 1043.7q-6.2 7-13.7 6.4-6-.5-11.4-5.4a21 21 0 0 1-7.2-11.7q-1.4-7.7 4.3-14.2 5.4-6.2 12.6-6 6.6.3 12.6 5.5a21 21 0 0 1 6.9 10.9q1.8 7.8-4.1 14.5M1628 1022q-4.2 4.7-2.7 9.8 1.5 5.3 6 9 4.6 4.2 9.6 4.3t8.8-4.2q3.7-4 3.1-9.2-.4-5-6-10-4.4-3.8-9.4-4.3t-9.4 4.6" class="fil3"/><path id="path1972" d="m1687.3 949.6-1.3 4.6-30-8.3-4.8 17.2-4.1-1.1 6.1-21.9z" class="fil3"/><path id="path1971" d="m1671.5 917.1 16.2-3.4-14.9-7.6zm21.7-5.3-.7 5.4-36.7 8.5.7-5.2 11-2.3 1.6-14-10-5 .6-4.9z" class="fil3"/><path id="path1968" d="m1689.9 853.3 1.9 25.8-4.3.3-1.6-21.1-10.7.8 1.5 19.5-4.1.3-1.5-19.5-11.9.9 1.6 21.5-4.2.3-2-26.1z" class="fil3"/><path id="path1966" d="M1656.2 810.5a10 10 0 0 0-4 3q-2.7 3.4-.5 9.1a15 15 0 0 0 2.4 4.4q2.8 3.4 6.5 2.2 2.7-1 3.2-3.1t0-6.1l-.6-4.9q-.6-4.8 0-7a7 7 0 0 1 5-5.5q4.5-1.6 8.5.5 4 2 6.1 7.7 2 5.3.7 9.8-1.1 4.6-6.8 6.6l-1.5-4.2a9 9 0 0 0 3.6-3q1.8-3 0-8-1.5-4-3.7-5-2.2-1.2-4.5-.4a4 4 0 0 0-2.9 3.4q-.2 1.5.4 6.7l.6 5q.5 3.7-.2 6a8 8 0 0 1-5.6 5.6q-5.5 2-9.4-1.1-3.9-3.2-5.8-8.5a15 15 0 0 1-.3-10.9q1.9-4.7 7.3-6.5z" class="fil3"/><path id="path1964" d="m1654 748.3-3.6 2.2-6.2-10.2-26.7 16.2-2.5-4.2 26.7-16.2-6.2-10.2 3.6-2.1z" class="fil3"/><path id="path1963" d="m1604.2 717 8.8-14-15.8 5.5zm11.3-19.3 3.4 4.2-19.4 32.3-3.3-4 6-9.6-8.9-10.8-10.6 3.7-3.1-3.8z" class="fil3"/><path id="path1960" d="m1566.9 654.5 20.5 15.7-2.6 3.4-16.8-12.8-6.5 8.5 15.5 11.9-2.5 3.2-15.5-11.8-7.3 9.5 17 13.1-2.5 3.3-20.8-15.9z" class="fil3"/><path id="path1956" d="M1315.4 618.5q4.9-1.4 8.8-.3 5.8 1.5 8.7 7.9l-4.6 1.1a9 9 0 0 0-4.9-4.6q-3-1-7.1 0-4.8 1.1-7.1 5.6-2.4 4.4-.6 11.4 1.5 6.1 5.2 9.4 3.7 3 9.7 1.6 4.7-1.2 7-4.6 2.4-3.5 1-9.6l-10.8 2.7-1-3.8 15.1-3.8 4.6 18.4-3 .7-2.2-4.1a18 18 0 0 1-3.3 4.6 16 16 0 0 1-7.3 3.7q-6.1 1.5-11.5-1.3-6-3.7-8.2-12.4t1.2-14.9q3.3-6 10.3-7.8" class="fil3"/><path id="path2005" d="M1526.8 650.3q3 1.5 5.3 1.3 2.4-.3 4-3.4 1.8-3.4 0-5.9a9 9 0 0 0-3.2-2.4l-10.4-5.5-5.6 10.8zm-6.6-21.7 14.5 7.6q3.6 1.8 5.4 4.1 3.3 4.3.5 9.7a9 9 0 0 1-3.5 4q-2.1 1.2-4.8 1.2 1.5 1.8 1.7 3.4.3 1.8-1 4.5l-2 4.3q-1 1.9-1.1 2.8-.5 1.7.3 2.7l-.4.7-5.2-2.7.2-1.3 1.1-2.6 2.5-5.3q1.5-3.2-.1-5.3-1-1.3-3.5-2.6l-9.7-5-7 13.4-4.3-2.3z" class="fil3"/></g></svg>